<svg xmlns="http://www.w3.org/2000/svg" version="1.1" xmlns:xlink="http://www.w3.org/1999/xlink" xmlns:svgjs="http://svgjs.dev/svgjs" width="2000" height="1277" viewBox="0 0 2000 1277"><g transform="matrix(1,0,0,1,-1.2121212121212466,-0.358539884976949)"><svg viewBox="0 0 396 253" data-background-color="#000000" preserveAspectRatio="xMidYMid meet" height="1277" width="2000" xmlns="http://www.w3.org/2000/svg" xmlns:xlink="http://www.w3.org/1999/xlink"><g id="tight-bounds" transform="matrix(1,0,0,1,0.2400000000000091,0.07103413539479675)"><svg viewBox="0 0 395.52 247.2" height="247.2" width="395.52"><g><svg></svg></g><g><svg viewBox="0 0 395.52 247.2" height="247.2" width="395.52"><mask id="d9141adc-0edc-4c99-8573-bf21c09c23bb"><rect width="640" height="400" fill="white"></rect><g transform="matrix(1,0,0,1,108.97705318221448,37.08)"><svg viewBox="0 0 177.56589363557103 173.04" height="173.04" width="177.56589363557103"><g><svg viewBox="0 0 177.56589363557103 173.04" height="173.04" width="177.56589363557103"><g><svg viewBox="0 0 177.56589363557103 173.04" height="173.04" width="177.56589363557103"><g><svg viewBox="0 0 177.56589363557103 173.04" height="173.04" width="177.56589363557103"><g id="SvgjsG3000"><svg viewBox="0 0 177.56589363557103 173.04" height="173.04" width="177.56589363557103" id="SvgjsSvg2999"><g><svg viewBox="0 0 177.56589363557103 173.04" height="173.04" width="177.56589363557103"><g transform="matrix(1,0,0,1,0,0)"><svg width="177.56589363557103" viewBox="-7.75 -41.8 59.85 58.349999999999994" height="173.04" data-palette-color="url(#841d0059-656d-4604-8349-cd37affbe611)"><path d="M11.5-7.3L9.55 0 0.75-2.4 2.3-8.2 2.3-25.3 6.55-25.3 1.35-25.8 2.05-33.3 22.2-31.4 21.5-24 21.5-18.7 18.4-16.7 21.5-15.85 21.5-7.85 23.45-7.3 21.5 0 13.95-2.05 13.95-2.05 12.7-2.4 13.95-7.1 13.95-11.75 16.1-11.75 9.85-13.45 9.85-7.75 11.5-7.3ZM13.95-17.95L13.95-24.3 17-24.3 9.85-25 9.85-19.05 13.95-17.95ZM41.2 6.2L33.65 8.05 25.75 5.9 27.75-1.4 33.65 0.2 33.65-23.25 37.9-23.25 24.95-24.5 25.65-32 43.6-30.3 42.9-22.75 41.2-22.95 41.2 6.2Z" opacity="1" transform="matrix(1,0,0,1,0,0)" fill="black" class="wordmark-text-0" id="SvgjsPath2998" stroke-width="16" stroke="black" stroke-linejoin="round"></path></svg></g></svg></g></svg></g></svg></g></svg></g></svg></g></svg></g></mask><g transform="matrix(1,0,0,1,108.97705318221448,37.08)"><svg viewBox="0 0 177.56589363557103 173.04" height="173.04" width="177.56589363557103"><g><svg viewBox="0 0 177.56589363557103 173.04" height="173.04" width="177.56589363557103"><g><svg viewBox="0 0 177.56589363557103 173.04" height="173.04" width="177.56589363557103"><g><svg viewBox="0 0 177.56589363557103 173.04" height="173.04" width="177.56589363557103"><g id="textblocktransform"><svg viewBox="0 0 177.56589363557103 173.04" height="173.04" width="177.56589363557103" id="textblock"><g><svg viewBox="0 0 177.56589363557103 173.04" height="173.04" width="177.56589363557103"><g transform="matrix(1,0,0,1,0,0)"><svg width="177.56589363557103" viewBox="-7.75 -41.8 59.85 58.349999999999994" height="173.04" data-palette-color="url(#841d0059-656d-4604-8349-cd37affbe611)"></svg></g></svg></g></svg></g></svg></g></svg></g></svg></g></svg></g><g mask="url(#d9141adc-0edc-4c99-8573-bf21c09c23bb)"><g transform="matrix(3.0738324916710607, 0, 0, 3.0738324916710607, 75.16124480568998, 1)"><svg xmlns="http://www.w3.org/2000/svg" xmlns:xlink="http://www.w3.org/1999/xlink" version="1.1" x="0" y="0" viewBox="5.412824897783869 5.195582772773262 79.76931438294501 79.77012432017702" enable-background="new 0 0 90 90" xml:space="preserve" height="79.77012432017702" width="79.76931438294501" class="icon-none" data-fill-palette-color="accent" id="none"><path d="M54.624 83.27C43.832 85.071 32.378 81.859 23.897 74.998 15.835 68.476 10.809 58.254 11.169 47.828 11.518 37.732 16.668 27.646 25.247 22.121 34.016 16.474 46.03 16.501 54.745 22.25 62.899 27.629 67.406 38.107 64.652 47.641 63.228 52.572 60.08 57.116 55.6 59.723 50.937 62.437 45.039 62.991 39.985 61.064 35.441 59.331 31.567 55.616 30.134 50.91 28.664 46.084 29.891 40.494 33.461 36.883 36.913 33.391 42.459 32.14 46.945 34.316 51.204 36.381 53.829 41.464 52.252 46.071 51.402 48.554 49.393 50.682 46.829 51.388 44.139 52.129 41.055 51.167 39.39 48.895 37.761 46.673 37.895 43.392 39.987 41.506 41.041 40.556 42.586 40.077 43.971 40.491 44.381 40.613 46.204 41.057 46.029 41.7 46.116 41.048 44.688 40.88 44.274 40.766 42.984 40.41 41.541 40.77 40.555 41.67 38.816 43.256 38.56 46.129 39.958 48.01 41.375 49.916 44.06 50.731 46.306 49.981 48.593 49.216 50.181 46.968 50.551 44.637 51.297 39.934 46.739 35.878 42.228 36.068 37.454 36.269 33.68 40.441 33.117 45.039 32.061 53.66 41.917 59.527 49.583 57.575 58.129 55.398 62.443 45.203 60.349 37.11 58.009 28.065 48.458 22.446 39.472 22.567 29.687 22.698 21.192 29.797 17.517 38.578 13.479 48.227 15.323 59.748 21.718 67.942 28.203 76.251 38.648 81.055 49.07 81.606 54.836 81.911 60.819 81.069 66.074 78.6 71.029 76.272 74.981 72.342 78.05 67.866 84.353 58.672 86.712 46.928 84.185 36.042 79.845 17.355 61.052 3.689 41.936 5.329 23.164 6.939 7.154 22.991 5.551 41.756 4.633 52.496 8.328 63.516 15.479 71.573 22.557 79.549 32.903 84.448 43.55 84.926A39.94 39.94 0 0 0 61.453 81.567C58.981 82.411 56.46 83.262 53.831 83.405 54.337 83.377 54.813 83.159 55.323 83.163 53.533 83.149 51.858 83.939 50.081 84.033 51.115 83.978 52.184 83.762 53.176 83.467 53.513 83.366 54.634 82.889 54.931 83.225 54.724 82.99 53.573 83.407 53.318 83.468 52.392 83.689 51.365 83.92 50.416 83.978 50.842 83.952 54.952 83.267 54.946 83.223 54.954 83.288 50.924 83.83 50.333 83.992 51.047 83.796 51.838 83.747 52.568 83.625 52.86 83.577 54.732 83.034 54.942 83.223 54.91 83.194 54.661 83.264 54.624 83.27 43.928 85.055 57.114 82.88 54.624 83.27" fill="#f0c711" data-fill-palette-color="accent"></path></svg></g></g></svg></g><defs></defs><mask id="96282830-c674-4e49-8fc5-1c3adb4a6d55"><g id="SvgjsG3010"><svg viewBox="0 0 395.52 247.2" height="247.2" width="395.52"><g><svg></svg></g><g><svg viewBox="0 0 395.52 247.2" height="247.2" width="395.52"><mask id="SvgjsMask3009"><rect width="640" height="400" fill="black"></rect><g transform="matrix(1,0,0,1,108.97705318221448,37.08)"><svg viewBox="0 0 177.56589363557103 173.04" height="173.04" width="177.56589363557103"><g><svg viewBox="0 0 177.56589363557103 173.04" height="173.04" width="177.56589363557103"><g><svg viewBox="0 0 177.56589363557103 173.04" height="173.04" width="177.56589363557103"><g><svg viewBox="0 0 177.56589363557103 173.04" height="173.04" width="177.56589363557103"><g id="SvgjsG3008"><svg viewBox="0 0 177.56589363557103 173.04" height="173.04" width="177.56589363557103" id="SvgjsSvg3007"><g><svg viewBox="0 0 177.56589363557103 173.04" height="173.04" width="177.56589363557103"><g transform="matrix(1,0,0,1,0,0)"><svg width="177.56589363557103" viewBox="-7.75 -41.8 59.85 58.349999999999994" height="173.04" data-palette-color="url(#841d0059-656d-4604-8349-cd37affbe611)"><path d="M11.5-7.3L9.55 0 0.75-2.4 2.3-8.2 2.3-25.3 6.55-25.3 1.35-25.8 2.05-33.3 22.2-31.4 21.5-24 21.5-18.7 18.4-16.7 21.5-15.85 21.5-7.85 23.45-7.3 21.5 0 13.95-2.05 13.95-2.05 12.7-2.4 13.95-7.1 13.95-11.75 16.1-11.75 9.85-13.45 9.85-7.75 11.5-7.3ZM13.95-17.95L13.95-24.3 17-24.3 9.85-25 9.85-19.05 13.95-17.95ZM41.2 6.2L33.65 8.05 25.75 5.9 27.75-1.4 33.65 0.2 33.65-23.25 37.9-23.25 24.95-24.5 25.65-32 43.6-30.3 42.9-22.75 41.2-22.95 41.2 6.2Z" opacity="1" transform="matrix(1,0,0,1,0,0)" fill="black" class="wordmark-text-0" id="SvgjsPath3006" stroke-width="16" stroke="black" stroke-linejoin="round"></path></svg></g></svg></g></svg></g></svg></g></svg></g></svg></g></svg></g></mask><g transform="matrix(1,0,0,1,108.97705318221448,37.08)"><svg viewBox="0 0 177.56589363557103 173.04" height="173.04" width="177.56589363557103"><g><svg viewBox="0 0 177.56589363557103 173.04" height="173.04" width="177.56589363557103"><g><svg viewBox="0 0 177.56589363557103 173.04" height="173.04" width="177.56589363557103"><g><svg viewBox="0 0 177.56589363557103 173.04" height="173.04" width="177.56589363557103"><g id="SvgjsG3005"><svg viewBox="0 0 177.56589363557103 173.04" height="173.04" width="177.56589363557103" id="SvgjsSvg3004"><g><svg viewBox="0 0 177.56589363557103 173.04" height="173.04" width="177.56589363557103"><g transform="matrix(1,0,0,1,0,0)"><svg width="177.56589363557103" viewBox="-7.75 -41.8 59.85 58.349999999999994" height="173.04" data-palette-color="url(#841d0059-656d-4604-8349-cd37affbe611)"><path d="M11.5-7.3L9.55 0 0.75-2.4 2.3-8.2 2.3-25.3 6.55-25.3 1.35-25.8 2.05-33.3 22.2-31.4 21.5-24 21.5-18.7 18.4-16.7 21.5-15.85 21.5-7.85 23.45-7.3 21.5 0 13.95-2.05 13.95-2.05 12.7-2.4 13.95-7.1 13.95-11.75 16.1-11.75 9.85-13.45 9.85-7.75 11.5-7.3ZM13.95-17.95L13.95-24.3 17-24.3 9.85-25 9.85-19.05 13.95-17.95ZM41.2 6.2L33.65 8.05 25.75 5.9 27.75-1.4 33.65 0.2 33.65-23.25 37.9-23.25 24.95-24.5 25.65-32 43.6-30.3 42.9-22.75 41.2-22.95 41.2 6.2Z" opacity="1" transform="matrix(1,0,0,1,0,0)" fill="white" class="wordmark-text-0" id="SvgjsPath3003"></path></svg></g></svg></g></svg></g></svg></g></svg></g></svg></g></svg></g><g mask="url(#d9141adc-0edc-4c99-8573-bf21c09c23bb)"><g transform="matrix(3.0738324916710607, 0, 0, 3.0738324916710607, 75.16124480568998, 1)"><svg xmlns="http://www.w3.org/2000/svg" xmlns:xlink="http://www.w3.org/1999/xlink" version="1.1" x="0" y="0" viewBox="5.412824897783869 5.195582772773262 79.76931438294501 79.77012432017702" enable-background="new 0 0 90 90" xml:space="preserve" height="79.77012432017702" width="79.76931438294501" class="icon-none" data-fill-palette-color="accent" id="SvgjsSvg3002"><path d="M54.624 83.27C43.832 85.071 32.378 81.859 23.897 74.998 15.835 68.476 10.809 58.254 11.169 47.828 11.518 37.732 16.668 27.646 25.247 22.121 34.016 16.474 46.03 16.501 54.745 22.25 62.899 27.629 67.406 38.107 64.652 47.641 63.228 52.572 60.08 57.116 55.6 59.723 50.937 62.437 45.039 62.991 39.985 61.064 35.441 59.331 31.567 55.616 30.134 50.91 28.664 46.084 29.891 40.494 33.461 36.883 36.913 33.391 42.459 32.14 46.945 34.316 51.204 36.381 53.829 41.464 52.252 46.071 51.402 48.554 49.393 50.682 46.829 51.388 44.139 52.129 41.055 51.167 39.39 48.895 37.761 46.673 37.895 43.392 39.987 41.506 41.041 40.556 42.586 40.077 43.971 40.491 44.381 40.613 46.204 41.057 46.029 41.7 46.116 41.048 44.688 40.88 44.274 40.766 42.984 40.41 41.541 40.77 40.555 41.67 38.816 43.256 38.56 46.129 39.958 48.01 41.375 49.916 44.06 50.731 46.306 49.981 48.593 49.216 50.181 46.968 50.551 44.637 51.297 39.934 46.739 35.878 42.228 36.068 37.454 36.269 33.68 40.441 33.117 45.039 32.061 53.66 41.917 59.527 49.583 57.575 58.129 55.398 62.443 45.203 60.349 37.11 58.009 28.065 48.458 22.446 39.472 22.567 29.687 22.698 21.192 29.797 17.517 38.578 13.479 48.227 15.323 59.748 21.718 67.942 28.203 76.251 38.648 81.055 49.07 81.606 54.836 81.911 60.819 81.069 66.074 78.6 71.029 76.272 74.981 72.342 78.05 67.866 84.353 58.672 86.712 46.928 84.185 36.042 79.845 17.355 61.052 3.689 41.936 5.329 23.164 6.939 7.154 22.991 5.551 41.756 4.633 52.496 8.328 63.516 15.479 71.573 22.557 79.549 32.903 84.448 43.55 84.926A39.94 39.94 0 0 0 61.453 81.567C58.981 82.411 56.46 83.262 53.831 83.405 54.337 83.377 54.813 83.159 55.323 83.163 53.533 83.149 51.858 83.939 50.081 84.033 51.115 83.978 52.184 83.762 53.176 83.467 53.513 83.366 54.634 82.889 54.931 83.225 54.724 82.99 53.573 83.407 53.318 83.468 52.392 83.689 51.365 83.92 50.416 83.978 50.842 83.952 54.952 83.267 54.946 83.223 54.954 83.288 50.924 83.83 50.333 83.992 51.047 83.796 51.838 83.747 52.568 83.625 52.86 83.577 54.732 83.034 54.942 83.223 54.91 83.194 54.661 83.264 54.624 83.27 43.928 85.055 57.114 82.88 54.624 83.27" fill="black"></path></svg></g></g></svg></g><defs><mask></mask></defs></svg><rect width="395.52" height="247.2" fill="black" stroke="none" visibility="hidden"></rect></g></mask><linearGradient x1="0.054" x2="0.941" y1="0.5" y2="0.5" id="841d0059-656d-4604-8349-cd37affbe611"><stop stop-color="#864d25" offset="0"></stop><stop stop-color="#f1c4b3" offset="0.498"></stop><stop stop-color="#864d25" offset="1"></stop></linearGradient><rect width="395.52" height="252.8579317292104" fill="url(#841d0059-656d-4604-8349-cd37affbe611)" mask="url(#96282830-c674-4e49-8fc5-1c3adb4a6d55)" data-fill-palette-color="primary"></rect></svg><rect width="395.52" height="247.2" fill="none" stroke="none" visibility="hidden"></rect></g></svg></g></svg>