<svg xmlns="http://www.w3.org/2000/svg" version="1.1" xmlns:xlink="http://www.w3.org/1999/xlink" xmlns:svgjs="http://svgjs.dev/svgjs" width="2000" height="1414" viewBox="0 0 2000 1414"><g transform="matrix(1,0,0,1,-1.2104424928486424,-2.0589801470920293)"><svg viewBox="0 0 396 280" data-background-color="#000000" preserveAspectRatio="xMidYMid meet" height="1414" width="2000" xmlns="http://www.w3.org/2000/svg" xmlns:xlink="http://www.w3.org/1999/xlink"><g id="tight-bounds" transform="matrix(1,0,0,1,0.23996874577096605,0.4077188410083181)"><svg viewBox="0 0 395.52 279.18456231798336" height="279.18456231798336" width="395.52"><g><svg viewBox="0 0 395.52 279.18456231798336" height="279.18456231798336" width="395.52"><g transform="matrix(1,0,0,1,0,161.84612754788603)"><svg viewBox="0 0 395.52 117.33843477009736" height="117.33843477009736" width="395.52"><g id="textblocktransform"><svg viewBox="0 0 395.52 117.33843477009736" height="117.33843477009736" width="395.52" id="textblock"><g><svg viewBox="0 0 395.52 75.87014635395605" height="75.87014635395605" width="395.52"><g transform="matrix(1,0,0,1,0,0)"><svg width="395.52" viewBox="-0.6194677471895133 -21.344348507999914 300.1154203165862 60.63595744016993" height="75.87014635395605" data-palette-color="#ffffff"><g transform="matrix(1,0,0,1,0,0)"><g><svg width="8.24747278034842" viewBox="3.16 -36.36 54.97 36.86" height="5.530282135659989" data-palette-color="#ffffff" id="scriptelement" x="289.5403761792225" y="30.69462786434002"><path d="M10.85 0L3.16 0 3.16-36.36 17.51-36.36Q21.63-36.36 24.55-34.9 27.47-33.43 29-30.76 30.54-28.09 30.54-24.49L30.54-24.49Q30.54-20.86 28.98-18.26 27.41-15.66 24.46-14.28 21.5-12.89 17.31-12.89L17.31-12.89 7.71-12.89 7.71-19.07 16.07-19.07Q18.27-19.07 19.73-19.67 21.18-20.28 21.9-21.48 22.62-22.69 22.62-24.49L22.62-24.49Q22.62-26.3 21.9-27.54 21.18-28.78 19.72-29.43 18.25-30.08 16.03-30.08L16.03-30.08 10.85-30.08 10.85 0ZM14.51-16.55L22.8-16.55 31.84 0 23.35 0 14.51-16.55ZM50.53-11.01L50.53-36.36 58.13-36.36 58.13-11.01Q58.13-7.49 56.56-4.9 54.99-2.31 52.2-0.91 49.41 0.5 45.72 0.5L45.72 0.5Q42.43 0.5 39.76-0.67 37.09-1.83 35.53-4.22 33.96-6.61 33.98-10.23L33.98-10.23 41.63-10.23Q41.67-8.79 42.23-7.77 42.79-6.75 43.77-6.21 44.76-5.66 46.11-5.66L46.11-5.66Q47.53-5.66 48.51-6.28 49.5-6.89 50.02-8.08 50.53-9.27 50.53-11.01L50.53-11.01Z" opacity="1" transform="matrix(1,0,0,1,0,0)" fill="#ffffff" class="undefined-123" data-fill-palette-color="primary" id="tk-123"></path></svg></g></g><path d="M287.832 33.46C287.832 30.239 290.443 27.628 293.664 27.628 296.885 27.628 299.496 30.239 299.496 33.46 299.496 36.681 296.885 39.292 293.664 39.292 290.443 39.292 287.832 36.681 287.832 33.46ZM293.664 38.892C296.664 38.892 299.096 36.46 299.096 33.46 299.096 30.46 296.664 28.028 293.664 28.028 290.664 28.028 288.232 30.46 288.232 33.46 288.232 36.46 290.664 38.892 293.664 38.892Z" fill="#ffffff" id="scriptcircle" data-fill-palette-color="primary"></path><path d="M19.734-2.909l-0.746-0.012c-0.378 0.011-0.58 0.076-0.606 0.192-0.025 0.111 0.315 0.395 1.019 0.852 0.704 0.457 1.333 1.069 1.887 1.834 0.555 0.759 0.879 1.603 0.973 2.532v0c0.156 1.414 0.067 2.873-0.267 4.376-0.335 1.503-0.5 2.767-0.496 3.793 0.01 1.027 0.119 1.829 0.324 2.408v0c0.396 1.229 0.838 2.034 1.327 2.416v0l0.291 0.26c0.166 0.174 0.228 0.358 0.184 0.553v0c-0.106 0.475-0.984 0.723-2.635 0.745-1.649 0.015-2.907-0.073-3.772-0.266v0c-1.692-0.377-2.621-1.297-2.787-2.761-0.159-1.463 0.128-3.841 0.861-7.134v0l0.586-2.635c0.62-2.785 0.182-4.747-1.312-5.886v0c-0.574-0.428-1.31-0.742-2.208-0.942v0l-0.049-0.011c-0.286-0.064-0.367-0.375-0.243-0.935 0.125-0.56 0.421-1.091 0.888-1.595 0.459-0.499 0.819-0.719 1.08-0.662v0c1.054 0.235 2.01 0.236 2.867 0.003 0.856-0.226 1.525-0.59 2.005-1.09v0c1.006-1.053 1.637-2.002 1.894-2.846v0l0.139-0.625c0.264-1.184 0.294-2.226 0.091-3.125-0.201-0.905-0.553-1.581-1.054-2.028v0c-0.849-0.728-1.768-1.203-2.757-1.423-0.996-0.222-1.83-0.322-2.504-0.301v0c-0.955 0.054-1.464 0.224-1.528 0.51v0c-1.221 4.134-2.263 8.143-3.128 12.028-0.865 3.885-1.471 6.871-1.82 8.959-0.349 2.087-0.606 3.779-0.771 5.073-0.17 1.287-0.28 2.041-0.329 2.263v0c-0.093 0.416-0.271 0.681-0.535 0.792v0c-1.577 0.919-3.775 1.065-6.593 0.438v0c-0.482-0.107-0.687-0.32-0.616-0.639v0c0.02-0.091 0.118-0.301 0.294-0.631v0c0.484-0.671 1.238-2.955 2.263-6.852 1.02-3.905 1.891-7.481 2.614-10.728 0.723-3.247 1.244-5.894 1.562-7.94v0c0.481-3.082 0.568-4.975 0.261-5.68v0c-0.251-0.527-0.358-0.879-0.319-1.054 0.039-0.176 0.256-0.322 0.651-0.439v0c2.256-0.502 6.072-0.154 11.447 1.042v0c4.321 0.962 7.281 2.898 8.88 5.808v0c0.853 1.597 1.056 3.404 0.607 5.422v0c-0.271 1.217-0.75 2.251-1.439 3.101-0.696 0.856-1.452 1.459-2.267 1.811v0c-1.576 0.728-2.981 1.071-4.214 1.029zM27.262 9.12v0l2.776-13.542c0.376-2.093 0.636-3.828 0.781-5.204v0c0.277-2.45 0.277-4.014-0.001-4.694v0l-0.144-0.331c-0.135-0.153-0.185-0.328-0.15-0.524v0c0.11-0.61 1.002-0.958 2.677-1.044 1.68-0.078 3.068-0.018 4.164 0.178 1.102 0.198 1.599 0.602 1.489 1.212v0l-0.144 0.523c-1.026 3.114-1.981 6.848-2.864 11.2-0.883 4.353-1.446 7.208-1.689 8.567-0.243 1.352-0.396 2.489-0.46 3.412-0.064 0.923-0.102 1.458-0.115 1.605-0.006 0.148 0.027 0.435 0.099 0.861 0.071 0.433 0.19 0.83 0.355 1.192v0c0.445 0.879 1.199 1.414 2.262 1.604 1.063 0.191 2.002 0.109 2.818-0.246 0.816-0.355 1.464-0.855 1.946-1.5v0c1.013-1.383 1.697-2.608 2.051-3.675v0l0.229-0.711c0.575-2.261 1.143-4.956 1.705-8.086 0.562-3.13 0.913-5.18 1.053-6.151 0.141-0.977 0.235-1.783 0.282-2.418 0.047-0.642 0.092-1.209 0.133-1.703 0.035-0.495 0.064-0.883 0.086-1.163 0.015-0.275 0.026-0.429 0.032-0.462v0c0.064-0.354 0.293-0.615 0.689-0.781v0c0.62-0.322 1.53-0.525 2.73-0.607 1.194-0.084 2.243-0.045 3.149 0.118 0.906 0.162 1.321 0.454 1.245 0.874v0c-0.012 0.066-0.189 0.582-0.532 1.55v0c-1.496 4.263-2.945 10.295-4.345 18.097v0c-1.036 5.774-1.387 9.958-1.053 12.552v0c0.062 0.411 0.08 0.688 0.054 0.832-0.026 0.144-0.191 0.308-0.495 0.491v0c-1.098 0.568-2.447 0.709-4.048 0.421-1.595-0.286-2.385-0.845-2.371-1.675v0c-0.082-0.448-0.027-1.305 0.167-2.571v0l0.055-0.59c0.052-0.289 0.012-0.445-0.119-0.468v0l-0.592 0.239c-0.796 0.927-1.66 1.663-2.591 2.207-0.932 0.551-1.792 0.888-2.579 1.011v0c-1.132 0.196-2.207 0.203-3.224 0.021-1.017-0.182-1.986-0.631-2.908-1.345-0.922-0.714-1.568-1.47-1.94-2.268-0.372-0.798-0.631-1.712-0.778-2.741v0c-0.172-1.46-0.133-2.882 0.115-4.267zM65.484 3.129v0c0.132 0.018 0.359 0.18 0.681 0.486 0.321 0.312 0.676 0.495 1.066 0.548v0l0.049 0.006c1.103 0.149 2.041-0.171 2.815-0.961 0.766-0.791 1.241-1.618 1.425-2.482v0l0.327-1.298c0.167-1.235 0.122-2.325-0.134-3.267-0.249-0.942-0.589-1.667-1.018-2.176-0.43-0.502-0.953-0.913-1.569-1.231v0c-0.769-0.434-1.599-0.711-2.491-0.831-0.898-0.121-1.634-0.13-2.206-0.026-0.579 0.103-0.913 0.233-1.002 0.389v0l-0.078 0.282c-0.89 4.347-1.569 8.251-2.037 11.713-0.467 3.455-0.814 6.442-1.04 8.962-0.219 2.513-0.363 4.452-0.433 5.814-0.07 1.363-0.114 2.11-0.131 2.243v0c-0.11 0.813-0.911 1.367-2.405 1.663-1.499 0.289-2.945 0.339-4.339 0.15v0c-0.647-0.088-0.949-0.293-0.905-0.617v0c0.013-0.092 0.089-0.311 0.229-0.655v0c0.815-1.35 2.023-7.951 3.626-19.803v0c0.944-6.983 1.012-11.044 0.203-12.183v0c-0.166-0.217-0.234-0.432-0.206-0.643 0.029-0.211 0.295-0.414 0.799-0.609 0.505-0.201 1.87-0.322 4.096-0.364 2.22-0.05 4.549 0.09 6.987 0.419v0c3.832 0.518 6.575 1.948 8.229 4.291 1.649 2.335 2.279 4.94 1.891 7.814-0.388 2.874-1.512 5.262-3.37 7.163-1.865 1.901-4.062 2.68-6.593 2.338v0c-0.813-0.11-1.605-0.368-2.377-0.775v0c-1.547-0.801-2.195-2.126-1.945-3.977v0c0.053-0.39 0.253-0.901 0.6-1.533 0.354-0.632 0.773-0.915 1.256-0.85zM91.582-1.615v0c-2.876 2.999-5.032 6.06-6.467 9.182v0l0.05 0.005c4.541 0.412 7.143 0.659 7.805 0.739 0.669 0.074 1.04 0.081 1.112 0.021 0.072-0.054 0.129-0.129 0.171-0.226v0c-0.193-4.067-0.386-6.843-0.579-8.326-0.194-1.477-0.453-2.23-0.779-2.26-0.332-0.03-0.77 0.258-1.313 0.865zM85.125 21.053v0l1.094-0.101c0.325 0.03 0.472 0.224 0.439 0.582v0c-0.104 1.142-0.417 2.084-0.94 2.827-0.529 0.742-1.151 1.244-1.864 1.507v0c-1.166 0.456-2.141 0.649-2.924 0.578v0c-1.5-0.136-2.575-0.803-3.222-2-0.648-1.19-0.869-2.921-0.664-5.191 0.206-2.271 1.095-5.162 2.666-8.674v0l-2.838-0.258c-0.359-0.033-0.522-0.228-0.489-0.587 0.033-0.359 0.361-0.911 0.984-1.657 0.631-0.753 1.255-1.101 1.872-1.045v0l2.211 0.2c2.785-4.942 5.915-9.149 9.39-12.622v0c0.899-0.902 1.984-1.724 3.256-2.466 1.266-0.742 2.227-1.083 2.885-1.023 0.651 0.059 1.112 0.399 1.383 1.019v0c0.726 1.445 1.267 6.545 1.623 15.3v0c0.054 3.754 0.382 7.659 0.984 11.717 0.603 4.051 1.283 6.439 2.041 7.164v0c0.187 0.151 0.272 0.326 0.253 0.525v0c-0.044 0.485-0.779 0.876-2.205 1.175-1.426 0.299-2.508 0.415-3.245 0.348-0.737-0.067-1.293-0.208-1.669-0.422-0.375-0.215-0.601-0.426-0.675-0.634v0c-0.476-1.322-0.788-4.409-0.936-9.263v0l-0.09-2.327c0.013-1.545-0.011-2.715-0.073-3.511v0l-0.326-0.281-10.223-0.979c-0.543 1.631-0.871 3.067-0.984 4.309-0.113 1.242-0.155 2.151-0.127 2.73 0.034 0.579 0.248 1.214 0.64 1.905 0.398 0.699 0.989 1.084 1.773 1.155zM119.84-1.604c0.904-1.038 1.811-2.003 2.72-2.894 0.917-0.891 1.657-1.439 2.221-1.646 0.57-0.2 1.708-0.259 3.413-0.178 1.698 0.081 2.537 0.335 2.516 0.761v0c-0.008 0.16-0.196 0.331-0.565 0.514-0.369 0.176-0.873 0.462-1.512 0.859-0.646 0.396-2.004 1.496-4.072 3.299-2.075 1.81-4.173 3.942-6.292 6.398v0c-0.063 0.064-0.097 0.152-0.103 0.265-0.005 0.113 0.081 0.191 0.259 0.233 0.178 0.042 0.429 0.104 0.752 0.186 0.323 0.082 0.907 0.364 1.752 0.844 0.851 0.481 1.604 1.074 2.258 1.78 0.654 0.705 1.267 1.769 1.84 3.191 0.573 1.422 0.88 2.748 0.921 3.979 0.034 1.236 0.078 2.346 0.132 3.33 0.053 0.99 0.239 2.411 0.558 4.261 0.326 1.851 0.756 2.969 1.291 3.355v0c0.16 0.141 0.235 0.312 0.226 0.512v0c-0.025 0.519-0.767 0.968-2.226 1.345-1.466 0.371-2.762 0.529-3.888 0.476-1.132-0.054-1.759-0.544-1.882-1.472v0c-0.113-0.987-0.115-3.333-0.004-7.038v0l0.093-1.958c0.164-3.443-0.206-5.957-1.112-7.541v0c-0.789-1.379-1.525-2.168-2.21-2.368v0c-0.512-0.185-0.784-0.278-0.817-0.279v0l-0.551 0.214c-0.83 0.881-1.494 1.737-1.995 2.567-0.5 0.824-0.776 1.431-0.827 1.823v0l-0.131 0.635c-0.22 4.621-0.212 8.576 0.025 11.864v0c0.048 0.396 0.07 0.627 0.067 0.694v0c-0.034 0.719-0.823 1.306-2.366 1.759-1.55 0.447-2.807 0.647-3.773 0.601-0.966-0.046-1.441-0.216-1.428-0.508v0c0.009-0.193 0.071-0.434 0.185-0.722v0c0.361-0.71 0.711-3.083 1.05-7.118 0.339-4.035 0.588-7.714 0.747-11.037 0.158-3.323 0.22-6.02 0.185-8.091v0c-0.045-3.119-0.282-4.999-0.712-5.64v0c-0.338-0.477-0.503-0.782-0.497-0.915v0c0.022-0.453 0.885-0.852 2.59-1.198 1.705-0.346 3.074-0.494 4.106-0.444 1.032 0.049 1.537 0.304 1.515 0.763v0l-0.079 0.627c-0.595 3.516-0.988 7.288-1.181 11.316v0c-0.016 0.326 0.05 0.493 0.197 0.5 0.153 0.007 0.333-0.131 0.54-0.415 0.214-0.283 0.52-0.679 0.917-1.187 0.405-0.508 1.139-1.424 2.204-2.748 1.065-1.331 2.045-2.515 2.943-3.554zM140.771 20.012v0l0.143-9.929c0.034-7.767-0.327-12.158-1.083-13.175v0c-0.358-0.462-0.537-0.782-0.536-0.962 0.001-0.18 0.225-0.392 0.673-0.638 0.441-0.245 1.302-0.511 2.583-0.798 1.281-0.288 2.412-0.43 3.392-0.426 0.987 0.004 1.479 0.236 1.477 0.697v0l-0.103 0.629c-0.409 3.538-0.62 6.997-0.635 10.378-0.015 3.373 0.066 7.144 0.241 11.311 0.182 4.161 0.269 7.225 0.261 9.191v0c-0.011 2.653-1.048 4.936-3.11 6.847-2.055 1.904-4.493 2.934-7.314 3.088v0c-0.553-0.069-0.829-0.267-0.827-0.594v0c0.001-0.233 0.075-0.413 0.222-0.539 0.147-0.133 0.321-0.295 0.522-0.487 0.194-0.199 0.556-0.708 1.087-1.526 0.524-0.818 0.984-1.742 1.382-2.774 0.398-1.025 0.767-2.457 1.109-4.295 0.335-1.832 0.507-3.831 0.516-5.998zM163.004 0.559v0c-2.497 3.321-4.271 6.618-5.322 9.89v0l0.05-0.001c4.558-0.134 7.171-0.201 7.837-0.2 0.673-0.006 1.042-0.044 1.107-0.113 0.065-0.062 0.113-0.143 0.143-0.244v0c-0.678-4.015-1.202-6.748-1.571-8.197-0.369-1.443-0.717-2.16-1.044-2.151-0.333 0.01-0.733 0.348-1.2 1.016zM159.305 23.838v0l1.074-0.232c0.327-0.01 0.495 0.166 0.506 0.525v0c0.034 1.146-0.165 2.119-0.595 2.919-0.437 0.8-0.993 1.373-1.67 1.72v0c-1.103 0.593-2.048 0.901-2.834 0.923v0c-1.506 0.044-2.652-0.489-3.439-1.599-0.786-1.104-1.213-2.796-1.279-5.075-0.067-2.279 0.469-5.256 1.608-8.931v0l-2.848 0.084c-0.36 0.011-0.545-0.164-0.556-0.524-0.011-0.36 0.249-0.948 0.779-1.764 0.536-0.823 1.114-1.243 1.733-1.261v0l2.219-0.065c2.174-5.239 4.778-9.791 7.813-13.656v0c0.784-1.003 1.764-1.949 2.938-2.837 1.168-0.888 2.082-1.342 2.741-1.361 0.653-0.019 1.152 0.263 1.495 0.846v0c0.893 1.348 2.041 6.346 3.442 14.996v0c0.503 3.72 1.296 7.559 2.379 11.515 1.083 3.95 2.044 6.239 2.883 6.868v0c0.204 0.127 0.309 0.291 0.315 0.491v0c0.014 0.486-0.669 0.963-2.049 1.431-1.38 0.467-2.44 0.712-3.18 0.733-0.74 0.022-1.309-0.052-1.707-0.22-0.398-0.168-0.647-0.351-0.747-0.548v0c-0.63-1.255-1.31-4.283-2.037-9.084v0l-0.368-2.3c-0.172-1.536-0.336-2.695-0.492-3.477v0l-0.357-0.24-10.267 0.252c-0.344 1.684-0.498 3.149-0.462 4.395 0.037 1.246 0.103 2.155 0.201 2.725 0.103 0.571 0.391 1.176 0.863 1.816 0.479 0.646 1.112 0.958 1.898 0.935zM193.07-4.883v0l-0.321-1.791c-0.043-0.592 0.678-1.065 2.163-1.421 1.485-0.355 2.945-0.586 4.381-0.69 1.443-0.105 2.182 0.088 2.218 0.58v0c0.016 0.226-0.129 0.517-0.438 0.874v0c-1.173 1.429-2.556 3.729-4.149 6.9-1.593 3.178-2.892 5.999-3.895 8.465v0l-1.508 3.66c-0.495 1.286-0.688 2.674-0.579 4.163 0.109 1.489 0.262 2.955 0.46 4.398 0.206 1.449 0.396 2.678 0.57 3.688 0.173 1.003 0.266 1.588 0.278 1.755v0c0.06 0.818-0.647 1.534-2.119 2.149-1.466 0.615-2.681 0.957-3.645 1.028-0.964 0.07-1.459-0.074-1.486-0.433v0l0.103-0.65c0.342-3.013 0.364-6.564 0.066-10.653v0c-0.074-1.011-0.332-2.259-0.774-3.743v0l-0.185-0.618c-2.507-5.506-4.772-9.532-6.796-12.078v0c-1.743-2.273-2.989-3.596-3.738-3.969v0l-0.47-0.257c-0.34-0.176-0.52-0.393-0.539-0.652v0c-0.041-0.559 0.769-1.192 2.429-1.902 1.652-0.715 2.914-1.105 3.785-1.168 0.864-0.063 1.462 0.158 1.793 0.661v0c3.393 5.929 6.042 10.729 7.947 14.401v0c0.114 0.192 0.261 0.282 0.441 0.269 0.18-0.013 0.378-0.225 0.595-0.635 0.217-0.41 0.541-1.059 0.971-1.946 0.43-0.887 0.971-2.447 1.624-4.68 0.659-2.234 0.932-4.135 0.818-5.705zM209.939-2.685v0c-2.227 3.508-3.736 6.934-4.526 10.279v0l0.05-0.005c4.533-0.493 7.132-0.765 7.797-0.818 0.671-0.06 1.036-0.126 1.095-0.199 0.06-0.067 0.101-0.152 0.123-0.255v0c-0.993-3.949-1.73-6.632-2.213-8.048-0.482-1.41-0.885-2.097-1.209-2.061-0.331 0.036-0.704 0.405-1.117 1.107zM208.088 20.813v0l1.052-0.316c0.325-0.035 0.507 0.126 0.545 0.484v0c0.124 1.14 0.003 2.125-0.362 2.957-0.372 0.832-0.882 1.447-1.529 1.846v0c-1.053 0.678-1.97 1.059-2.753 1.144v0c-1.498 0.163-2.682-0.278-3.554-1.324-0.871-1.039-1.429-2.691-1.676-4.958-0.246-2.267 0.053-5.277 0.9-9.03v0l-2.834 0.308c-0.358 0.039-0.556-0.121-0.595-0.478-0.039-0.358 0.173-0.964 0.637-1.82 0.47-0.862 1.012-1.327 1.629-1.394v0l2.207-0.24c1.754-5.395 3.991-10.137 6.711-14.229v0c0.703-1.062 1.604-2.082 2.705-3.06 1.094-0.977 1.969-1.502 2.626-1.573 0.65-0.071 1.169 0.171 1.557 0.726v0c0.997 1.273 2.535 6.165 4.614 14.677v0c0.795 3.669 1.888 7.433 3.28 11.292 1.391 3.852 2.53 6.059 3.415 6.619v0c0.213 0.111 0.331 0.266 0.352 0.465v0c0.053 0.484-0.591 1.013-1.929 1.588-1.339 0.575-2.376 0.902-3.112 0.982-0.736 0.08-1.309 0.052-1.72-0.085-0.41-0.136-0.673-0.299-0.787-0.487v0c-0.728-1.202-1.643-4.167-2.748-8.895v0l-0.547-2.264c-0.292-1.517-0.547-2.66-0.765-3.428v0l-0.375-0.211-10.216 1.061c-0.21 1.706-0.248 3.179-0.113 4.418 0.135 1.239 0.273 2.14 0.415 2.701 0.148 0.561 0.483 1.141 1.004 1.742 0.529 0.606 1.184 0.867 1.966 0.782zM244.876 5.533v0l-0.925-5.777c-0.867-5.735-1.638-9.512-2.31-11.332v0c-0.101-0.221-0.161-0.394-0.18-0.519v0c-0.084-0.554 0.395-1.108 1.438-1.663 1.042-0.555 1.889-0.882 2.541-0.982 0.646-0.098 0.998 0.048 1.058 0.437v0c0.005 0.033-0.001 0.216-0.019 0.549v0c-0.142 4.101 0.445 10.495 1.759 19.183v0c0.896 5.926 1.88 10.136 2.952 12.63v0c0.195 0.395 0.294 0.609 0.3 0.643v0c0.104 0.686-0.556 1.358-1.981 2.019-1.424 0.66-2.446 1.037-3.065 1.131v0c-0.969 0.147-1.666 0.019-2.091-0.382v0c-0.848-0.795-2.394-3.171-4.638-7.126-2.236-3.95-4.228-7.65-5.977-11.101v0l-2.673-5.169c-0.09-0.148-0.181-0.215-0.273-0.201v0c-0.132 0.02-0.263 0.154-0.394 0.403v0c0.297 3.036 0.674 6.064 1.131 9.083 0.456 3.012 0.829 5.326 1.12 6.941 0.29 1.608 0.532 2.829 0.726 3.662 0.194 0.834 0.361 1.496 0.503 1.988 0.142 0.491 0.253 0.848 0.334 1.072 0.087 0.216 0.137 0.374 0.153 0.472v0c0.093 0.613-0.372 1.172-1.395 1.678-1.016 0.504-1.952 0.821-2.81 0.951-0.864 0.131-1.325 0.001-1.383-0.388v0c-0.03-0.198-0.017-0.449 0.038-0.754 0.055-0.305 0.114-0.695 0.177-1.17v0c0.152-1.183 0.063-3.283-0.266-6.301-0.322-3.019-0.773-6.447-1.353-10.283-0.581-3.843-1.053-6.63-1.416-8.362v0c-0.59-2.83-1.169-4.698-1.738-5.604v0c-0.114-0.084-0.183-0.208-0.208-0.373v0c-0.078-0.514 0.707-1.145 2.353-1.893 1.64-0.747 2.938-1.193 3.894-1.337 0.956-0.145 1.519-0.213 1.689-0.205v0c0.45-0.102 0.763 0.117 0.938 0.657v0c1.457 3.259 3.384 7.06 5.781 11.404 2.397 4.344 4.445 7.631 6.144 9.862v0c0.182 0.134 0.323 0.194 0.421 0.179v0c0.165-0.025 0.046-1.366-0.355-4.022zM266.456-5.369v0l1.317 5.997 1.561 8.368c0.059 0.117 0.121 0.169 0.186 0.155 0.065-0.014 0.108-0.053 0.128-0.119v0c0.449-1.035 1.147-1.652 2.093-1.852 0.946-0.2 1.459-0.107 1.54 0.278v0c0.257 1.22 0.69 2.106 1.297 2.66 0.602 0.561 1.327 0.752 2.175 0.573 0.848-0.179 1.545-0.929 2.091-2.25 0.539-1.32 0.606-2.942 0.2-4.866v0c-0.135-0.639-0.424-1.382-0.869-2.228v0c-0.894-1.685-2.109-2.682-3.646-2.992v0c-1.112-0.201-2.823-0.059-5.132 0.428v0c-0.261 0.055-0.429-0.094-0.503-0.445v0c-0.38-1.8-0.254-2.801 0.378-3.003v0c0.861-0.182 1.727-0.596 2.6-1.244v0c1.734-1.306 2.307-3.355 1.718-6.147v0c-0.636-3.014-2.686-4.155-6.149-3.424v0l-1.467 0.412c-0.553 0.253-0.825 0.562-0.816 0.928v0l0.029 0.137c-0.081 1.359 0.342 4.237 1.269 8.634zM264.091 18.442v0l-0.014-0.549c0.197-0.648-0.024-3.054-0.664-7.218-0.648-4.169-1.349-8.041-2.103-11.616-0.755-3.581-1.433-6.436-2.032-8.565-0.6-2.135-1.322-3.618-2.165-4.449v0c-0.163-0.129-0.269-0.308-0.318-0.536-0.047-0.222 0.105-0.455 0.456-0.699v0c2.413-1.579 5.879-2.845 10.4-3.799v0c1.122-0.237 2.374-0.341 3.756-0.312 1.381 0.022 2.543 0.169 3.486 0.44 0.943 0.271 1.859 0.8 2.747 1.587 0.887 0.78 1.512 1.804 1.874 3.069v0c0.981 4.651-0.378 7.735-4.078 9.251v0c-0.175 0.105-0.255 0.197-0.239 0.275 0.017 0.078 0.113 0.15 0.291 0.215v0c2.057-0.1 3.896 0.35 5.517 1.35v0c0.8 0.465 1.609 1.282 2.429 2.452 0.813 1.171 1.394 2.588 1.745 4.251v0c0.454 2.153 0.258 4.323-0.589 6.512v0c-0.694 1.782-1.948 3.218-3.761 4.309v0c-1.008 0.615-2.184 1.064-3.528 1.347v0c-3.372 0.711-5.733 0.085-7.08-1.879v0c-0.052-0.084-0.11-0.12-0.176-0.106v0l-0.157 0.228c-0.198 2.386-1.876 3.963-5.031 4.73v0c-0.45 0.095-0.705-0.001-0.766-0.288z" opacity="1" transform="matrix(1,0,0,1,0,0)" fill="#ffffff" class="wordmark-text-0" data-fill-palette-color="primary" id="text-0"></path></svg></g></svg></g><g transform="matrix(1,0,0,1,119.10906654500656,98.93327113373373)"><svg viewBox="0 0 115.68960000000003 18.405163636363636" height="18.405163636363636" width="115.68960000000003"><g transform="matrix(1,0,0,1,0,0)"><svg width="115.68960000000003" viewBox="1.5 -37.45 296.96 47.25" height="18.405163636363636" data-palette-color="url(#38648eb5-2007-498f-8699-cf06492db5f9)"></svg></g></svg></g></svg></g></svg></g><g transform="matrix(1,0,0,1,49.08894759349192,0)"><svg viewBox="0 0 297.34210481301614 157.2335025919305" height="157.2335025919305" width="297.34210481301614"><g><svg xmlns="http://www.w3.org/2000/svg" xmlns:xlink="http://www.w3.org/1999/xlink" version="1.1" x="0" y="0" viewBox="5.151 26.284 89.69800000000001 47.431999999999995" enable-background="new 0 0 100 100" xml:space="preserve" height="157.2335025919305" width="297.34210481301614" class="icon-icon-0" data-fill-palette-color="accent" id="icon-0"><g fill="#ffae00" data-fill-palette-color="accent"><path d="M49.996 32.902L53.287 39.571 53.928 40.87 55.365 41.079 62.722 42.148 57.397 47.338 56.36 48.35 56.605 49.779 57.861 57.107 51.279 53.647 49.997 52.972 48.714 53.647 42.133 57.107 43.39 49.779 43.634 48.35 42.597 47.338 37.272 42.148 44.631 41.079 46.065 40.87 46.707 39.571zM49.996 26.673L44.232 38.351 31.345 40.224 40.67 49.314 38.47 62.149 49.996 56.088 61.523 62.149 59.321 49.313 68.646 40.223 55.76 38.351z" fill="#ffae00" data-fill-palette-color="accent"></path><polygon points="59.149,63.116 59.149,63.116 59.149,63.116  " fill="#ffae00" data-fill-palette-color="accent"></polygon><polygon points="72.194,39.427 59.32,37.556 60.383,34.378 94.849,34.531 92.68,39 74.199,37.886 91.276,41.891 89.813,44.907    72.803,40.654 88.516,47.579 87.209,50.268 71.976,43.104 85.949,52.863 84.725,55.384 71.65,46.027 83.464,57.981 82.417,60.138    70.898,50.353 81.191,62.661 80.971,63.116 61.107,50.302 61.097,50.243  " fill="#ffae00" data-fill-palette-color="accent"></polygon><polygon points="5.151,34.531 39.618,34.378 40.68,37.556 27.806,39.427 38.902,50.243 38.894,50.302 19.029,63.116 18.809,62.661    29.103,50.353 17.584,60.138 16.536,57.981 28.35,46.027 15.275,55.384 14.052,52.863 28.024,43.104 12.791,50.268 11.486,47.579    27.197,40.654 10.188,44.907 8.724,41.891 25.801,37.886 7.32,39  " fill="#ffae00" data-fill-palette-color="accent"></polygon><polygon points="56.854,61.902 65.458,73.716 59.541,73.716 54.871,63.415 57.984,73.716 55.474,73.716 52.495,62.15    53.596,73.716 51.333,73.716 50.063,60.343 48.543,73.716 46.28,73.716 47.716,62.15 44.402,73.716 41.892,73.716 45.494,63.415    40.336,73.716 35.43,73.716 43.977,61.894 50.05,58.325  " fill="#ffae00" data-fill-palette-color="accent"></polygon><polygon points="63.107,61.963 65.38,64.333 69.125,63.116 70.986,66.148 69.103,64.633 66.184,66.148 62.158,66.148    59.754,63.546 63.054,64.615  " fill="#ffae00" data-fill-palette-color="accent"></polygon><polygon points="36.793,61.963 34.521,64.333 30.775,63.116 28.914,66.148 30.798,64.633 33.716,66.148 37.742,66.148    40.146,63.546 36.847,64.615  " fill="#ffae00" data-fill-palette-color="accent"></polygon><polygon points="43.229,29.73 40.067,29.579 38.845,30.5 39.652,28.436 42.764,26.965 45.479,26.284 48.42,26.514 45.025,33.31     " fill="#ffae00" data-fill-palette-color="accent"></polygon></g></svg></g></svg></g><g></g></svg></g><defs></defs><mask id="d89e45fe-8825-4fca-8845-6ae62a5ae98a"><g id="SvgjsG1595"><svg viewBox="0 0 395.52 279.18456231798336" height="279.18456231798336" width="395.52"><g><svg viewBox="0 0 395.52 279.18456231798336" height="279.18456231798336" width="395.52"><g transform="matrix(1,0,0,1,0,161.84612754788603)"><svg viewBox="0 0 395.52 117.33843477009736" height="117.33843477009736" width="395.52"><g id="SvgjsG1594"><svg viewBox="0 0 395.52 117.33843477009736" height="117.33843477009736" width="395.52" id="SvgjsSvg1593"><g><svg viewBox="0 0 395.52 75.87014635395605" height="75.87014635395605" width="395.52"><g transform="matrix(1,0,0,1,0,0)"><svg width="395.52" viewBox="-0.6194677471895133 -21.344348507999914 300.1154203165862 60.63595744016993" height="75.87014635395605" data-palette-color="#ffffff"><g transform="matrix(1,0,0,1,0,0)"><g><svg width="8.24747278034842" viewBox="3.16 -36.36 54.97 36.86" height="5.530282135659989" data-palette-color="#ffffff" id="SvgjsSvg1592" x="289.5403761792225" y="30.69462786434002"><path d="M10.85 0L3.16 0 3.16-36.36 17.51-36.36Q21.63-36.36 24.55-34.9 27.47-33.43 29-30.76 30.54-28.09 30.54-24.49L30.54-24.49Q30.54-20.86 28.98-18.26 27.41-15.66 24.46-14.28 21.5-12.89 17.31-12.89L17.31-12.89 7.71-12.89 7.71-19.07 16.07-19.07Q18.27-19.07 19.73-19.67 21.18-20.28 21.9-21.48 22.62-22.69 22.62-24.49L22.62-24.49Q22.62-26.3 21.9-27.54 21.18-28.78 19.72-29.43 18.25-30.08 16.03-30.08L16.03-30.08 10.85-30.08 10.85 0ZM14.51-16.55L22.8-16.55 31.84 0 23.35 0 14.51-16.55ZM50.53-11.01L50.53-36.36 58.13-36.36 58.13-11.01Q58.13-7.49 56.56-4.9 54.99-2.31 52.2-0.91 49.41 0.5 45.72 0.5L45.72 0.5Q42.43 0.5 39.76-0.67 37.09-1.83 35.53-4.22 33.96-6.61 33.98-10.23L33.98-10.23 41.63-10.23Q41.67-8.79 42.23-7.77 42.79-6.75 43.77-6.21 44.76-5.66 46.11-5.66L46.11-5.66Q47.53-5.66 48.51-6.28 49.5-6.89 50.02-8.08 50.53-9.27 50.53-11.01L50.53-11.01Z" opacity="1" transform="matrix(1,0,0,1,0,0)" fill="black" class="undefined-123" id="SvgjsPath1591"></path></svg></g></g><path d="M287.832 33.46C287.832 30.239 290.443 27.628 293.664 27.628 296.885 27.628 299.496 30.239 299.496 33.46 299.496 36.681 296.885 39.292 293.664 39.292 290.443 39.292 287.832 36.681 287.832 33.46ZM293.664 38.892C296.664 38.892 299.096 36.46 299.096 33.46 299.096 30.46 296.664 28.028 293.664 28.028 290.664 28.028 288.232 30.46 288.232 33.46 288.232 36.46 290.664 38.892 293.664 38.892Z" fill="black" id="SvgjsPath1590"></path><path d="M19.734-2.909l-0.746-0.012c-0.378 0.011-0.58 0.076-0.606 0.192-0.025 0.111 0.315 0.395 1.019 0.852 0.704 0.457 1.333 1.069 1.887 1.834 0.555 0.759 0.879 1.603 0.973 2.532v0c0.156 1.414 0.067 2.873-0.267 4.376-0.335 1.503-0.5 2.767-0.496 3.793 0.01 1.027 0.119 1.829 0.324 2.408v0c0.396 1.229 0.838 2.034 1.327 2.416v0l0.291 0.26c0.166 0.174 0.228 0.358 0.184 0.553v0c-0.106 0.475-0.984 0.723-2.635 0.745-1.649 0.015-2.907-0.073-3.772-0.266v0c-1.692-0.377-2.621-1.297-2.787-2.761-0.159-1.463 0.128-3.841 0.861-7.134v0l0.586-2.635c0.62-2.785 0.182-4.747-1.312-5.886v0c-0.574-0.428-1.31-0.742-2.208-0.942v0l-0.049-0.011c-0.286-0.064-0.367-0.375-0.243-0.935 0.125-0.56 0.421-1.091 0.888-1.595 0.459-0.499 0.819-0.719 1.08-0.662v0c1.054 0.235 2.01 0.236 2.867 0.003 0.856-0.226 1.525-0.59 2.005-1.09v0c1.006-1.053 1.637-2.002 1.894-2.846v0l0.139-0.625c0.264-1.184 0.294-2.226 0.091-3.125-0.201-0.905-0.553-1.581-1.054-2.028v0c-0.849-0.728-1.768-1.203-2.757-1.423-0.996-0.222-1.83-0.322-2.504-0.301v0c-0.955 0.054-1.464 0.224-1.528 0.51v0c-1.221 4.134-2.263 8.143-3.128 12.028-0.865 3.885-1.471 6.871-1.82 8.959-0.349 2.087-0.606 3.779-0.771 5.073-0.17 1.287-0.28 2.041-0.329 2.263v0c-0.093 0.416-0.271 0.681-0.535 0.792v0c-1.577 0.919-3.775 1.065-6.593 0.438v0c-0.482-0.107-0.687-0.32-0.616-0.639v0c0.02-0.091 0.118-0.301 0.294-0.631v0c0.484-0.671 1.238-2.955 2.263-6.852 1.02-3.905 1.891-7.481 2.614-10.728 0.723-3.247 1.244-5.894 1.562-7.94v0c0.481-3.082 0.568-4.975 0.261-5.68v0c-0.251-0.527-0.358-0.879-0.319-1.054 0.039-0.176 0.256-0.322 0.651-0.439v0c2.256-0.502 6.072-0.154 11.447 1.042v0c4.321 0.962 7.281 2.898 8.88 5.808v0c0.853 1.597 1.056 3.404 0.607 5.422v0c-0.271 1.217-0.75 2.251-1.439 3.101-0.696 0.856-1.452 1.459-2.267 1.811v0c-1.576 0.728-2.981 1.071-4.214 1.029zM27.262 9.12v0l2.776-13.542c0.376-2.093 0.636-3.828 0.781-5.204v0c0.277-2.45 0.277-4.014-0.001-4.694v0l-0.144-0.331c-0.135-0.153-0.185-0.328-0.15-0.524v0c0.11-0.61 1.002-0.958 2.677-1.044 1.68-0.078 3.068-0.018 4.164 0.178 1.102 0.198 1.599 0.602 1.489 1.212v0l-0.144 0.523c-1.026 3.114-1.981 6.848-2.864 11.2-0.883 4.353-1.446 7.208-1.689 8.567-0.243 1.352-0.396 2.489-0.46 3.412-0.064 0.923-0.102 1.458-0.115 1.605-0.006 0.148 0.027 0.435 0.099 0.861 0.071 0.433 0.19 0.83 0.355 1.192v0c0.445 0.879 1.199 1.414 2.262 1.604 1.063 0.191 2.002 0.109 2.818-0.246 0.816-0.355 1.464-0.855 1.946-1.5v0c1.013-1.383 1.697-2.608 2.051-3.675v0l0.229-0.711c0.575-2.261 1.143-4.956 1.705-8.086 0.562-3.13 0.913-5.18 1.053-6.151 0.141-0.977 0.235-1.783 0.282-2.418 0.047-0.642 0.092-1.209 0.133-1.703 0.035-0.495 0.064-0.883 0.086-1.163 0.015-0.275 0.026-0.429 0.032-0.462v0c0.064-0.354 0.293-0.615 0.689-0.781v0c0.62-0.322 1.53-0.525 2.73-0.607 1.194-0.084 2.243-0.045 3.149 0.118 0.906 0.162 1.321 0.454 1.245 0.874v0c-0.012 0.066-0.189 0.582-0.532 1.55v0c-1.496 4.263-2.945 10.295-4.345 18.097v0c-1.036 5.774-1.387 9.958-1.053 12.552v0c0.062 0.411 0.08 0.688 0.054 0.832-0.026 0.144-0.191 0.308-0.495 0.491v0c-1.098 0.568-2.447 0.709-4.048 0.421-1.595-0.286-2.385-0.845-2.371-1.675v0c-0.082-0.448-0.027-1.305 0.167-2.571v0l0.055-0.59c0.052-0.289 0.012-0.445-0.119-0.468v0l-0.592 0.239c-0.796 0.927-1.66 1.663-2.591 2.207-0.932 0.551-1.792 0.888-2.579 1.011v0c-1.132 0.196-2.207 0.203-3.224 0.021-1.017-0.182-1.986-0.631-2.908-1.345-0.922-0.714-1.568-1.47-1.94-2.268-0.372-0.798-0.631-1.712-0.778-2.741v0c-0.172-1.46-0.133-2.882 0.115-4.267zM65.484 3.129v0c0.132 0.018 0.359 0.18 0.681 0.486 0.321 0.312 0.676 0.495 1.066 0.548v0l0.049 0.006c1.103 0.149 2.041-0.171 2.815-0.961 0.766-0.791 1.241-1.618 1.425-2.482v0l0.327-1.298c0.167-1.235 0.122-2.325-0.134-3.267-0.249-0.942-0.589-1.667-1.018-2.176-0.43-0.502-0.953-0.913-1.569-1.231v0c-0.769-0.434-1.599-0.711-2.491-0.831-0.898-0.121-1.634-0.13-2.206-0.026-0.579 0.103-0.913 0.233-1.002 0.389v0l-0.078 0.282c-0.89 4.347-1.569 8.251-2.037 11.713-0.467 3.455-0.814 6.442-1.04 8.962-0.219 2.513-0.363 4.452-0.433 5.814-0.07 1.363-0.114 2.11-0.131 2.243v0c-0.11 0.813-0.911 1.367-2.405 1.663-1.499 0.289-2.945 0.339-4.339 0.15v0c-0.647-0.088-0.949-0.293-0.905-0.617v0c0.013-0.092 0.089-0.311 0.229-0.655v0c0.815-1.35 2.023-7.951 3.626-19.803v0c0.944-6.983 1.012-11.044 0.203-12.183v0c-0.166-0.217-0.234-0.432-0.206-0.643 0.029-0.211 0.295-0.414 0.799-0.609 0.505-0.201 1.87-0.322 4.096-0.364 2.22-0.05 4.549 0.09 6.987 0.419v0c3.832 0.518 6.575 1.948 8.229 4.291 1.649 2.335 2.279 4.94 1.891 7.814-0.388 2.874-1.512 5.262-3.37 7.163-1.865 1.901-4.062 2.68-6.593 2.338v0c-0.813-0.11-1.605-0.368-2.377-0.775v0c-1.547-0.801-2.195-2.126-1.945-3.977v0c0.053-0.39 0.253-0.901 0.6-1.533 0.354-0.632 0.773-0.915 1.256-0.85zM91.582-1.615v0c-2.876 2.999-5.032 6.06-6.467 9.182v0l0.05 0.005c4.541 0.412 7.143 0.659 7.805 0.739 0.669 0.074 1.04 0.081 1.112 0.021 0.072-0.054 0.129-0.129 0.171-0.226v0c-0.193-4.067-0.386-6.843-0.579-8.326-0.194-1.477-0.453-2.23-0.779-2.26-0.332-0.03-0.77 0.258-1.313 0.865zM85.125 21.053v0l1.094-0.101c0.325 0.03 0.472 0.224 0.439 0.582v0c-0.104 1.142-0.417 2.084-0.94 2.827-0.529 0.742-1.151 1.244-1.864 1.507v0c-1.166 0.456-2.141 0.649-2.924 0.578v0c-1.5-0.136-2.575-0.803-3.222-2-0.648-1.19-0.869-2.921-0.664-5.191 0.206-2.271 1.095-5.162 2.666-8.674v0l-2.838-0.258c-0.359-0.033-0.522-0.228-0.489-0.587 0.033-0.359 0.361-0.911 0.984-1.657 0.631-0.753 1.255-1.101 1.872-1.045v0l2.211 0.2c2.785-4.942 5.915-9.149 9.39-12.622v0c0.899-0.902 1.984-1.724 3.256-2.466 1.266-0.742 2.227-1.083 2.885-1.023 0.651 0.059 1.112 0.399 1.383 1.019v0c0.726 1.445 1.267 6.545 1.623 15.3v0c0.054 3.754 0.382 7.659 0.984 11.717 0.603 4.051 1.283 6.439 2.041 7.164v0c0.187 0.151 0.272 0.326 0.253 0.525v0c-0.044 0.485-0.779 0.876-2.205 1.175-1.426 0.299-2.508 0.415-3.245 0.348-0.737-0.067-1.293-0.208-1.669-0.422-0.375-0.215-0.601-0.426-0.675-0.634v0c-0.476-1.322-0.788-4.409-0.936-9.263v0l-0.09-2.327c0.013-1.545-0.011-2.715-0.073-3.511v0l-0.326-0.281-10.223-0.979c-0.543 1.631-0.871 3.067-0.984 4.309-0.113 1.242-0.155 2.151-0.127 2.73 0.034 0.579 0.248 1.214 0.64 1.905 0.398 0.699 0.989 1.084 1.773 1.155zM119.84-1.604c0.904-1.038 1.811-2.003 2.72-2.894 0.917-0.891 1.657-1.439 2.221-1.646 0.57-0.2 1.708-0.259 3.413-0.178 1.698 0.081 2.537 0.335 2.516 0.761v0c-0.008 0.16-0.196 0.331-0.565 0.514-0.369 0.176-0.873 0.462-1.512 0.859-0.646 0.396-2.004 1.496-4.072 3.299-2.075 1.81-4.173 3.942-6.292 6.398v0c-0.063 0.064-0.097 0.152-0.103 0.265-0.005 0.113 0.081 0.191 0.259 0.233 0.178 0.042 0.429 0.104 0.752 0.186 0.323 0.082 0.907 0.364 1.752 0.844 0.851 0.481 1.604 1.074 2.258 1.78 0.654 0.705 1.267 1.769 1.84 3.191 0.573 1.422 0.88 2.748 0.921 3.979 0.034 1.236 0.078 2.346 0.132 3.33 0.053 0.99 0.239 2.411 0.558 4.261 0.326 1.851 0.756 2.969 1.291 3.355v0c0.16 0.141 0.235 0.312 0.226 0.512v0c-0.025 0.519-0.767 0.968-2.226 1.345-1.466 0.371-2.762 0.529-3.888 0.476-1.132-0.054-1.759-0.544-1.882-1.472v0c-0.113-0.987-0.115-3.333-0.004-7.038v0l0.093-1.958c0.164-3.443-0.206-5.957-1.112-7.541v0c-0.789-1.379-1.525-2.168-2.21-2.368v0c-0.512-0.185-0.784-0.278-0.817-0.279v0l-0.551 0.214c-0.83 0.881-1.494 1.737-1.995 2.567-0.5 0.824-0.776 1.431-0.827 1.823v0l-0.131 0.635c-0.22 4.621-0.212 8.576 0.025 11.864v0c0.048 0.396 0.07 0.627 0.067 0.694v0c-0.034 0.719-0.823 1.306-2.366 1.759-1.55 0.447-2.807 0.647-3.773 0.601-0.966-0.046-1.441-0.216-1.428-0.508v0c0.009-0.193 0.071-0.434 0.185-0.722v0c0.361-0.71 0.711-3.083 1.05-7.118 0.339-4.035 0.588-7.714 0.747-11.037 0.158-3.323 0.22-6.02 0.185-8.091v0c-0.045-3.119-0.282-4.999-0.712-5.64v0c-0.338-0.477-0.503-0.782-0.497-0.915v0c0.022-0.453 0.885-0.852 2.59-1.198 1.705-0.346 3.074-0.494 4.106-0.444 1.032 0.049 1.537 0.304 1.515 0.763v0l-0.079 0.627c-0.595 3.516-0.988 7.288-1.181 11.316v0c-0.016 0.326 0.05 0.493 0.197 0.5 0.153 0.007 0.333-0.131 0.54-0.415 0.214-0.283 0.52-0.679 0.917-1.187 0.405-0.508 1.139-1.424 2.204-2.748 1.065-1.331 2.045-2.515 2.943-3.554zM140.771 20.012v0l0.143-9.929c0.034-7.767-0.327-12.158-1.083-13.175v0c-0.358-0.462-0.537-0.782-0.536-0.962 0.001-0.18 0.225-0.392 0.673-0.638 0.441-0.245 1.302-0.511 2.583-0.798 1.281-0.288 2.412-0.43 3.392-0.426 0.987 0.004 1.479 0.236 1.477 0.697v0l-0.103 0.629c-0.409 3.538-0.62 6.997-0.635 10.378-0.015 3.373 0.066 7.144 0.241 11.311 0.182 4.161 0.269 7.225 0.261 9.191v0c-0.011 2.653-1.048 4.936-3.11 6.847-2.055 1.904-4.493 2.934-7.314 3.088v0c-0.553-0.069-0.829-0.267-0.827-0.594v0c0.001-0.233 0.075-0.413 0.222-0.539 0.147-0.133 0.321-0.295 0.522-0.487 0.194-0.199 0.556-0.708 1.087-1.526 0.524-0.818 0.984-1.742 1.382-2.774 0.398-1.025 0.767-2.457 1.109-4.295 0.335-1.832 0.507-3.831 0.516-5.998zM163.004 0.559v0c-2.497 3.321-4.271 6.618-5.322 9.89v0l0.05-0.001c4.558-0.134 7.171-0.201 7.837-0.2 0.673-0.006 1.042-0.044 1.107-0.113 0.065-0.062 0.113-0.143 0.143-0.244v0c-0.678-4.015-1.202-6.748-1.571-8.197-0.369-1.443-0.717-2.16-1.044-2.151-0.333 0.01-0.733 0.348-1.2 1.016zM159.305 23.838v0l1.074-0.232c0.327-0.01 0.495 0.166 0.506 0.525v0c0.034 1.146-0.165 2.119-0.595 2.919-0.437 0.8-0.993 1.373-1.67 1.72v0c-1.103 0.593-2.048 0.901-2.834 0.923v0c-1.506 0.044-2.652-0.489-3.439-1.599-0.786-1.104-1.213-2.796-1.279-5.075-0.067-2.279 0.469-5.256 1.608-8.931v0l-2.848 0.084c-0.36 0.011-0.545-0.164-0.556-0.524-0.011-0.36 0.249-0.948 0.779-1.764 0.536-0.823 1.114-1.243 1.733-1.261v0l2.219-0.065c2.174-5.239 4.778-9.791 7.813-13.656v0c0.784-1.003 1.764-1.949 2.938-2.837 1.168-0.888 2.082-1.342 2.741-1.361 0.653-0.019 1.152 0.263 1.495 0.846v0c0.893 1.348 2.041 6.346 3.442 14.996v0c0.503 3.72 1.296 7.559 2.379 11.515 1.083 3.95 2.044 6.239 2.883 6.868v0c0.204 0.127 0.309 0.291 0.315 0.491v0c0.014 0.486-0.669 0.963-2.049 1.431-1.38 0.467-2.44 0.712-3.18 0.733-0.74 0.022-1.309-0.052-1.707-0.22-0.398-0.168-0.647-0.351-0.747-0.548v0c-0.63-1.255-1.31-4.283-2.037-9.084v0l-0.368-2.3c-0.172-1.536-0.336-2.695-0.492-3.477v0l-0.357-0.24-10.267 0.252c-0.344 1.684-0.498 3.149-0.462 4.395 0.037 1.246 0.103 2.155 0.201 2.725 0.103 0.571 0.391 1.176 0.863 1.816 0.479 0.646 1.112 0.958 1.898 0.935zM193.07-4.883v0l-0.321-1.791c-0.043-0.592 0.678-1.065 2.163-1.421 1.485-0.355 2.945-0.586 4.381-0.69 1.443-0.105 2.182 0.088 2.218 0.58v0c0.016 0.226-0.129 0.517-0.438 0.874v0c-1.173 1.429-2.556 3.729-4.149 6.9-1.593 3.178-2.892 5.999-3.895 8.465v0l-1.508 3.66c-0.495 1.286-0.688 2.674-0.579 4.163 0.109 1.489 0.262 2.955 0.46 4.398 0.206 1.449 0.396 2.678 0.57 3.688 0.173 1.003 0.266 1.588 0.278 1.755v0c0.06 0.818-0.647 1.534-2.119 2.149-1.466 0.615-2.681 0.957-3.645 1.028-0.964 0.07-1.459-0.074-1.486-0.433v0l0.103-0.65c0.342-3.013 0.364-6.564 0.066-10.653v0c-0.074-1.011-0.332-2.259-0.774-3.743v0l-0.185-0.618c-2.507-5.506-4.772-9.532-6.796-12.078v0c-1.743-2.273-2.989-3.596-3.738-3.969v0l-0.47-0.257c-0.34-0.176-0.52-0.393-0.539-0.652v0c-0.041-0.559 0.769-1.192 2.429-1.902 1.652-0.715 2.914-1.105 3.785-1.168 0.864-0.063 1.462 0.158 1.793 0.661v0c3.393 5.929 6.042 10.729 7.947 14.401v0c0.114 0.192 0.261 0.282 0.441 0.269 0.18-0.013 0.378-0.225 0.595-0.635 0.217-0.41 0.541-1.059 0.971-1.946 0.43-0.887 0.971-2.447 1.624-4.68 0.659-2.234 0.932-4.135 0.818-5.705zM209.939-2.685v0c-2.227 3.508-3.736 6.934-4.526 10.279v0l0.05-0.005c4.533-0.493 7.132-0.765 7.797-0.818 0.671-0.06 1.036-0.126 1.095-0.199 0.06-0.067 0.101-0.152 0.123-0.255v0c-0.993-3.949-1.73-6.632-2.213-8.048-0.482-1.41-0.885-2.097-1.209-2.061-0.331 0.036-0.704 0.405-1.117 1.107zM208.088 20.813v0l1.052-0.316c0.325-0.035 0.507 0.126 0.545 0.484v0c0.124 1.14 0.003 2.125-0.362 2.957-0.372 0.832-0.882 1.447-1.529 1.846v0c-1.053 0.678-1.97 1.059-2.753 1.144v0c-1.498 0.163-2.682-0.278-3.554-1.324-0.871-1.039-1.429-2.691-1.676-4.958-0.246-2.267 0.053-5.277 0.9-9.03v0l-2.834 0.308c-0.358 0.039-0.556-0.121-0.595-0.478-0.039-0.358 0.173-0.964 0.637-1.82 0.47-0.862 1.012-1.327 1.629-1.394v0l2.207-0.24c1.754-5.395 3.991-10.137 6.711-14.229v0c0.703-1.062 1.604-2.082 2.705-3.06 1.094-0.977 1.969-1.502 2.626-1.573 0.65-0.071 1.169 0.171 1.557 0.726v0c0.997 1.273 2.535 6.165 4.614 14.677v0c0.795 3.669 1.888 7.433 3.28 11.292 1.391 3.852 2.53 6.059 3.415 6.619v0c0.213 0.111 0.331 0.266 0.352 0.465v0c0.053 0.484-0.591 1.013-1.929 1.588-1.339 0.575-2.376 0.902-3.112 0.982-0.736 0.08-1.309 0.052-1.72-0.085-0.41-0.136-0.673-0.299-0.787-0.487v0c-0.728-1.202-1.643-4.167-2.748-8.895v0l-0.547-2.264c-0.292-1.517-0.547-2.66-0.765-3.428v0l-0.375-0.211-10.216 1.061c-0.21 1.706-0.248 3.179-0.113 4.418 0.135 1.239 0.273 2.14 0.415 2.701 0.148 0.561 0.483 1.141 1.004 1.742 0.529 0.606 1.184 0.867 1.966 0.782zM244.876 5.533v0l-0.925-5.777c-0.867-5.735-1.638-9.512-2.31-11.332v0c-0.101-0.221-0.161-0.394-0.18-0.519v0c-0.084-0.554 0.395-1.108 1.438-1.663 1.042-0.555 1.889-0.882 2.541-0.982 0.646-0.098 0.998 0.048 1.058 0.437v0c0.005 0.033-0.001 0.216-0.019 0.549v0c-0.142 4.101 0.445 10.495 1.759 19.183v0c0.896 5.926 1.88 10.136 2.952 12.63v0c0.195 0.395 0.294 0.609 0.3 0.643v0c0.104 0.686-0.556 1.358-1.981 2.019-1.424 0.66-2.446 1.037-3.065 1.131v0c-0.969 0.147-1.666 0.019-2.091-0.382v0c-0.848-0.795-2.394-3.171-4.638-7.126-2.236-3.95-4.228-7.65-5.977-11.101v0l-2.673-5.169c-0.09-0.148-0.181-0.215-0.273-0.201v0c-0.132 0.02-0.263 0.154-0.394 0.403v0c0.297 3.036 0.674 6.064 1.131 9.083 0.456 3.012 0.829 5.326 1.12 6.941 0.29 1.608 0.532 2.829 0.726 3.662 0.194 0.834 0.361 1.496 0.503 1.988 0.142 0.491 0.253 0.848 0.334 1.072 0.087 0.216 0.137 0.374 0.153 0.472v0c0.093 0.613-0.372 1.172-1.395 1.678-1.016 0.504-1.952 0.821-2.81 0.951-0.864 0.131-1.325 0.001-1.383-0.388v0c-0.03-0.198-0.017-0.449 0.038-0.754 0.055-0.305 0.114-0.695 0.177-1.17v0c0.152-1.183 0.063-3.283-0.266-6.301-0.322-3.019-0.773-6.447-1.353-10.283-0.581-3.843-1.053-6.63-1.416-8.362v0c-0.59-2.83-1.169-4.698-1.738-5.604v0c-0.114-0.084-0.183-0.208-0.208-0.373v0c-0.078-0.514 0.707-1.145 2.353-1.893 1.64-0.747 2.938-1.193 3.894-1.337 0.956-0.145 1.519-0.213 1.689-0.205v0c0.45-0.102 0.763 0.117 0.938 0.657v0c1.457 3.259 3.384 7.06 5.781 11.404 2.397 4.344 4.445 7.631 6.144 9.862v0c0.182 0.134 0.323 0.194 0.421 0.179v0c0.165-0.025 0.046-1.366-0.355-4.022zM266.456-5.369v0l1.317 5.997 1.561 8.368c0.059 0.117 0.121 0.169 0.186 0.155 0.065-0.014 0.108-0.053 0.128-0.119v0c0.449-1.035 1.147-1.652 2.093-1.852 0.946-0.2 1.459-0.107 1.54 0.278v0c0.257 1.22 0.69 2.106 1.297 2.66 0.602 0.561 1.327 0.752 2.175 0.573 0.848-0.179 1.545-0.929 2.091-2.25 0.539-1.32 0.606-2.942 0.2-4.866v0c-0.135-0.639-0.424-1.382-0.869-2.228v0c-0.894-1.685-2.109-2.682-3.646-2.992v0c-1.112-0.201-2.823-0.059-5.132 0.428v0c-0.261 0.055-0.429-0.094-0.503-0.445v0c-0.38-1.8-0.254-2.801 0.378-3.003v0c0.861-0.182 1.727-0.596 2.6-1.244v0c1.734-1.306 2.307-3.355 1.718-6.147v0c-0.636-3.014-2.686-4.155-6.149-3.424v0l-1.467 0.412c-0.553 0.253-0.825 0.562-0.816 0.928v0l0.029 0.137c-0.081 1.359 0.342 4.237 1.269 8.634zM264.091 18.442v0l-0.014-0.549c0.197-0.648-0.024-3.054-0.664-7.218-0.648-4.169-1.349-8.041-2.103-11.616-0.755-3.581-1.433-6.436-2.032-8.565-0.6-2.135-1.322-3.618-2.165-4.449v0c-0.163-0.129-0.269-0.308-0.318-0.536-0.047-0.222 0.105-0.455 0.456-0.699v0c2.413-1.579 5.879-2.845 10.4-3.799v0c1.122-0.237 2.374-0.341 3.756-0.312 1.381 0.022 2.543 0.169 3.486 0.44 0.943 0.271 1.859 0.8 2.747 1.587 0.887 0.78 1.512 1.804 1.874 3.069v0c0.981 4.651-0.378 7.735-4.078 9.251v0c-0.175 0.105-0.255 0.197-0.239 0.275 0.017 0.078 0.113 0.15 0.291 0.215v0c2.057-0.1 3.896 0.35 5.517 1.35v0c0.8 0.465 1.609 1.282 2.429 2.452 0.813 1.171 1.394 2.588 1.745 4.251v0c0.454 2.153 0.258 4.323-0.589 6.512v0c-0.694 1.782-1.948 3.218-3.761 4.309v0c-1.008 0.615-2.184 1.064-3.528 1.347v0c-3.372 0.711-5.733 0.085-7.08-1.879v0c-0.052-0.084-0.11-0.12-0.176-0.106v0l-0.157 0.228c-0.198 2.386-1.876 3.963-5.031 4.73v0c-0.45 0.095-0.705-0.001-0.766-0.288z" opacity="1" transform="matrix(1,0,0,1,0,0)" fill="black" class="wordmark-text-0" id="SvgjsPath1589"></path></svg></g></svg></g><g transform="matrix(1,0,0,1,119.10906654500656,98.93327113373373)"><svg viewBox="0 0 115.68960000000003 18.405163636363636" height="18.405163636363636" width="115.68960000000003"><g transform="matrix(1,0,0,1,0,0)"><svg width="115.68960000000003" viewBox="1.5 -37.45 296.96 47.25" height="18.405163636363636" data-palette-color="url(#38648eb5-2007-498f-8699-cf06492db5f9)"><path d="M18.1-4.2L18.1-4.2Q17.75-4.2 17.4-4.6L17.4-4.6Q16.7-5.4 5.9-12.1L5.9-12.1 2.3-14.35Q1.5-15 1.5-15.55L1.5-15.55Q1.5-16.5 2.45-17.25L2.45-17.25Q10.7-23.6 18.2-28.15L18.2-28.15Q18.55-28.4 18.85-28.4L18.85-28.4Q19.55-28.4 19.55-27.03 19.55-25.65 18.6-24.9L18.6-24.9Q10.5-19.95 6.8-16.9L6.8-16.9Q6.35-16.6 6.35-16.28 6.35-15.95 6.7-15.75L6.7-15.75Q16.05-10.15 18.4-8.2L18.4-8.2Q19.2-7.75 19.2-6.7L19.2-6.7Q19.2-4.2 18.1-4.2ZM53.14-11.45L53.14-11.45Q54.09-11.45 54.09-9.05 54.09-6.65 53.2-4.75 52.3-2.85 51.02-1.8 49.75-0.75 48.14-0.1L48.14-0.1Q42.8 2.25 38.14-0.2L38.14-0.2Q35.8-1.45 34.55-3.18 33.3-4.9 32.55-7.3L32.55-7.3Q31.39-10.9 31.39-14.85 31.39-18.8 32.14-22.25 32.89-25.7 34.45-28.83 35.99-31.95 38.84-33.85 41.7-35.75 45.45-35.75L45.45-35.75Q47.05-35.75 48.77-35.23 50.5-34.7 51.59-33.93 52.7-33.15 53.55-31.55 54.39-29.95 54.39-27.8L54.39-27.8Q54.39-25.5 53.3-23.65L53.3-23.65Q52.8-22.8 51.7-22.13 50.59-21.45 49.09-21.45L49.09-21.45Q46.8-21.45 45.84-23.5L45.84-23.5Q45.45-24.3 45.45-25.25 45.45-26.2 46.09-26.35L46.09-26.35Q46.8-26.55 47.39-27.45 47.99-28.35 47.99-29.55L47.99-29.55Q47.99-30.5 47.49-31.2L47.49-31.2Q46.55-32.45 44.74-32.45 42.95-32.45 41.47-30.8 39.99-29.15 39.24-26.65L39.24-26.65Q37.74-21.65 37.74-17.45L37.74-17.45Q37.74-13.25 38.89-10.7L38.89-10.7Q40.3-7.55 42.45-6.5L42.45-6.5Q43.8-5.85 45.55-5.85L45.55-5.85Q48.49-5.85 50.84-8.5L50.84-8.5Q51.84-9.55 52.5-11L52.5-11Q52.75-11.45 53.14-11.45ZM61.74-18.85L61.74-18.85Q60.44-18.8 59.87-18.78 59.29-18.75 59.29-19.05 59.29-19.35 59.59-19.65L59.59-19.65Q62.79-22.6 70.39-22.6L70.39-22.6Q72.99-22.6 74.49-22.15L74.49-22.15 74.99-22Q75.59-21.75 75.59-21.45L75.59-21.45Q75.59-21.2 75.24-21.05L75.24-21.05Q73.89-20.65 72.64-19.78 71.39-18.9 71.39-18.55L71.39-18.55 71.69-18.2Q73.29-17.3 74.17-15.35 75.04-13.4 75.14-11.9L75.14-11.9 75.24-10.35Q75.24-5.4 72.49-2.2 69.74 1 64.99 1L64.99 1Q62.59 1 60.84 0.15 59.09-0.7 58.27-1.78 57.44-2.85 56.94-4.2L56.94-4.2Q56.34-6.05 56.34-8.03 56.34-10 57.02-12 57.69-14 58.57-14.95 59.44-15.9 60.54-16.5L60.54-16.5Q61.94-17.25 62.79-17.25 63.64-17.25 63.64-16.9L63.64-16.9 63.34-16.4Q62.24-15.1 61.77-13 61.29-10.9 61.29-9.28 61.29-7.65 61.69-6.05 62.09-4.45 62.59-3.68 63.09-2.9 63.74-2.5L63.74-2.5Q64.69-1.9 65.74-1.9 66.79-1.9 67.79-2.73 68.79-3.55 69.24-4.9L69.24-4.9Q70.14-7.4 70.14-10.05L70.14-10.05Q70.14-14.25 68.02-16.55 65.89-18.85 61.74-18.85ZM87.84-22.45L87.84-22.45Q88.74-22.45 89.47-22.23 90.19-22 90.24-22L90.24-22 90.54-22.25 90.34-27.7Q90.24-29.1 89.74-30.1 89.24-31.1 88.84-31.4L88.84-31.4 88.39-31.65Q88.09-31.85 88.09-32.1L88.09-32.1Q88.09-32.85 90.42-33.85 92.74-34.85 94.04-34.85 95.34-34.85 95.44-34.3L95.44-34.3Q95.69-32.6 95.69-27.83 95.69-23.05 95.47-18.45 95.24-13.85 95.24-8.03 95.24-2.2 95.99-0.7L95.99-0.7Q96.19-0.35 96.19-0.05L96.19-0.05Q96.19 0.7 94.04 0.7L94.04 0.7Q89.94 0.7 89.94-1.25L89.94-1.25Q89.84-2.05 89.84-3.73 89.84-5.4 90.17-9.98 90.49-14.55 90.49-17.03 90.49-19.5 88.02-19.5 85.54-19.5 84.24-16.6 82.94-13.7 82.94-10.8L82.94-10.8Q82.94-4.65 86.04-4.65L86.04-4.65Q86.49-4.65 86.92-4.83 87.34-5 87.44-5L87.44-5Q87.84-5 88.06-4.5 88.29-4 88.29-3.5L88.29-3.5Q88.29-1.8 86.94-0.63 85.59 0.55 83.64 0.55L83.64 0.55Q80.64 0.55 79.12-2.08 77.59-4.7 77.59-8.6L77.59-8.6Q77.59-13.55 79.94-17.8L79.94-17.8Q81.14-19.9 83.19-21.18 85.24-22.45 87.84-22.45ZM103.19-12.7L103.19-12.7 103.24-11.45Q103.24-11.15 103.64-11.15L103.64-11.15Q105.24-11.3 106.44-11.98 107.64-12.65 108.24-13.5L108.24-13.5Q109.44-15.35 109.54-16.7L109.54-16.7 109.59-17.3Q109.59-20 107.44-20L107.44-20Q105.84-20 104.84-18.6L104.84-18.6Q103.19-16.4 103.19-12.7ZM114.09-6.05L114.09-6.05Q114.09-4.15 113.31-2.73 112.54-1.3 111.56-0.63 110.59 0.05 109.29 0.45L109.29 0.45Q107.64 0.95 106.14 0.95L106.14 0.95Q101.94 0.95 99.94-2.2 97.94-5.35 97.94-10.23 97.94-15.1 100.41-18.9 102.89-22.7 107.84-22.7L107.84-22.7Q112.34-22.7 113.94-19.55L113.94-19.55Q114.59-18.35 114.59-17.28 114.59-16.2 114.49-15.58 114.39-14.95 113.79-13.7 113.19-12.45 112.19-11.45 111.19-10.45 109.04-9.55 106.89-8.65 103.99-8.35L103.99-8.35Q103.59-8.35 103.59-8L103.59-8Q103.59-7.55 103.91-6.68 104.24-5.8 104.64-5.2L104.64-5.2Q105.74-3.8 107.89-3.8L107.89-3.8Q110.04-3.8 111.54-5.2L111.54-5.2Q112.34-5.95 112.84-7.05L112.84-7.05Q113.04-7.45 113.36-7.45 113.69-7.45 113.89-6.9 114.09-6.35 114.09-6.05ZM127.93-9L127.93-9 128.23-17.85 124.88-17.85Q124.48-17.85 124.48-18.15L124.48-18.15Q124.48-19.05 125.33-20.23 126.18-21.4 127.18-21.4L127.18-21.4 128.23-21.4Q128.13-25.3 128.03-27L128.03-27Q127.83-30.05 127.03-31.7L127.03-31.7 126.78-32.2Q126.58-32.45 126.58-32.8 126.58-33.15 127.13-33.4 127.68-33.65 128.76-34 129.83-34.35 133.33-34.93 136.83-35.5 140.96-35.5 145.08-35.5 145.46-34.9 145.83-34.3 145.83-33.02 145.83-31.75 145.48-31.75L145.48-31.75Q145.43-31.75 145.13-31.8L145.13-31.8Q144.33-32 142.68-32 141.03-32 139.13-31.7 137.23-31.4 136.23-31.1L136.23-31.1 135.28-30.75Q134.88-30.65 134.68-30.05L134.68-30.05Q134.28-27.1 134.28-21.4L134.28-21.4 142.38-21.4Q142.83-21.4 142.83-21.1L142.83-21.1Q142.83-20.2 142.03-19 141.23-17.8 140.23-17.8L140.23-17.8 134.28-17.85 134.63-2.85Q134.63-1.75 134.28-1.25L134.28-1.25Q133.33 0 131.06 0.63 128.78 1.25 127.28 1.25L127.28 1.25Q126.88 1.25 126.88 0.75L126.88 0.75Q126.88 0.5 126.93 0.35L126.93 0.35Q127.53-0.5 127.93-9ZM148.08-18.85L148.08-18.85Q146.78-18.8 146.21-18.78 145.63-18.75 145.63-19.05 145.63-19.35 145.93-19.65L145.93-19.65Q149.13-22.6 156.73-22.6L156.73-22.6Q159.33-22.6 160.83-22.15L160.83-22.15 161.33-22Q161.93-21.75 161.93-21.45L161.93-21.45Q161.93-21.2 161.58-21.05L161.58-21.05Q160.23-20.65 158.98-19.78 157.73-18.9 157.73-18.55L157.73-18.55 158.03-18.2Q159.63-17.3 160.5-15.35 161.38-13.4 161.48-11.9L161.48-11.9 161.58-10.35Q161.58-5.4 158.83-2.2 156.08 1 151.33 1L151.33 1Q148.93 1 147.18 0.15 145.43-0.7 144.61-1.78 143.78-2.85 143.28-4.2L143.28-4.2Q142.68-6.05 142.68-8.03 142.68-10 143.36-12 144.03-14 144.91-14.95 145.78-15.9 146.88-16.5L146.88-16.5Q148.28-17.25 149.13-17.25 149.98-17.25 149.98-16.9L149.98-16.9 149.68-16.4Q148.58-15.1 148.11-13 147.63-10.9 147.63-9.28 147.63-7.65 148.03-6.05 148.43-4.45 148.93-3.68 149.43-2.9 150.08-2.5L150.08-2.5Q151.03-1.9 152.08-1.9 153.13-1.9 154.13-2.73 155.13-3.55 155.58-4.9L155.58-4.9Q156.48-7.4 156.48-10.05L156.48-10.05Q156.48-14.25 154.36-16.55 152.23-18.85 148.08-18.85ZM179.18-17.2L178.93-13.4 179.13-11.65Q179.13-10.7 177.33-10.7L177.33-10.7Q173.68-10.7 173.68-13.45L173.68-13.45Q173.68-14.1 174.03-15.25 174.38-16.4 174.38-17.25 174.38-18.1 173.88-18.73 173.38-19.35 172.43-19.35 171.48-19.35 170.8-18.68 170.13-18 169.98-17.3L169.98-17.3 169.78-16.6Q169.48-15.05 169.48-11.43 169.48-7.8 169.58-5.73 169.68-3.65 169.78-2.88 169.88-2.1 169.88-1.95L169.88-1.95Q169.88-0.7 168.33 0.08 166.78 0.85 165.23 0.85 163.68 0.85 163.68 0.2L163.68 0.2 163.93-1.35Q164.63-5.7 164.63-12.7 164.63-19.7 164.13-22.2L164.13-22.2Q164.13-22.8 165.18-22.8L165.18-22.8Q167.88-22.8 168.78-20.95L168.78-20.95Q168.83-20.75 168.95-20.75 169.08-20.75 169.63-21.2L169.63-21.2Q171.28-22.55 173.53-22.55L173.53-22.55Q174.93-22.55 176.33-22L176.33-22Q179.18-20.85 179.18-17.2L179.18-17.2ZM204.32-0.05L204.32-0.05 201.47-0.1Q200.87-0.1 200.27-0.1L200.27-0.1 191.17 0.35Q190.42 0.35 190.42-0.15L190.42-0.15Q190.42-0.3 190.57-0.85L190.57-0.85Q191.07-2 191.3-8.15 191.52-14.3 191.52-19.38 191.52-24.45 191.32-27.6L191.32-27.6Q191.02-32.35 190.32-33.3L190.32-33.3Q189.77-34 189.77-34.2L189.77-34.2Q189.77-35 192.47-35.6 195.17-36.2 196.35-36.2 197.52-36.2 197.82-36.08 198.12-35.95 198.12-35.55 198.12-35.15 197.92-33L197.92-33Q197.42-26.65 197.42-18.23 197.42-9.8 197.82-4.75L197.82-4.75Q197.82-4.2 198.77-3.8 199.72-3.4 201.12-3.4L201.12-3.4Q206.02-3.4 206.02-10.95L206.02-10.95Q206.02-13.05 205.8-13.55 205.57-14.05 205.57-14.2L205.57-14.2Q205.57-14.7 206.27-14.7L206.27-14.7Q206.82-14.7 207.75-14.15 208.67-13.6 209.27-12.78 209.87-11.95 210.37-10.18 210.87-8.4 210.87-6L210.87-6Q210.87-0.05 209.42-0.05L209.42-0.05Q206.87-0.05 204.32-0.05ZM217.87-26.75L217.87-26.75 216.67-26.8Q215.32-26.8 214.92-26.15L214.92-26.15Q214.82-26 214.67-26L214.67-26Q214.02-26 214.02-28.23 214.02-30.45 214.7-31.05 215.37-31.65 217.05-31.65 218.72-31.65 219.32-31.08 219.92-30.5 219.92-29.15 219.92-27.8 219.47-27.28 219.02-26.75 217.87-26.75ZM213.87-1.5L213.87-1.5 214.42-13.15Q214.42-17.3 213.47-18.8L213.47-18.8Q213.17-19.3 212.77-19.55L212.77-19.55Q212.47-19.65 212.47-19.95L212.47-19.95Q212.47-20.85 215.02-21.7 217.57-22.55 218.75-22.55 219.92-22.55 219.97-21.95L219.97-21.95Q219.97-20.95 219.7-16.28 219.42-11.6 219.42-6.45 219.42-1.3 220.02-0.05L220.02-0.05Q220.17 0.2 220.17 0.45L220.17 0.45Q220.17 1.1 218.27 1.1 216.37 1.1 214.37 0.1L214.37 0.1Q213.87-0.15 213.87-1.5ZM229.72-12.5L229.72-12.5 229.97-2.5Q229.97 0.65 229.14 3.08 228.32 5.5 227.12 6.7L227.12 6.7Q224.67 9.25 222.82 9.6L222.82 9.6 221.97 9.8Q221.22 9.8 221.22 9.35L221.22 9.35 221.47 8.6Q225.12 3.55 225.12-16.2L225.12-16.2Q225.12-18 225.07-18.9L225.07-18.9Q224.02-18.9 222.97-18.75L222.97-18.75 222.92-18.75Q222.37-18.75 222.37-19.3L222.37-19.3 222.52-21.2Q222.57-21.65 223.22-21.65L223.22-21.65 225.02-21.65 225.02-25 225.12-29.75Q225.12-30.1 225.24-30.53 225.37-30.95 226.32-31.83 227.27-32.7 229.12-33.43 230.97-34.15 232.29-34.15 233.62-34.15 233.62-33.35L233.62-33.35Q233.62-33.05 233.17-32.85L233.17-32.85Q231.72-32.4 230.79-30.28 229.87-28.15 229.87-23.05L229.87-23.05 229.87-21.65Q232.42-21.75 233.22-21.9L233.22-21.9Q233.57-21.9 233.57-21.3 233.57-20.7 233.04-19.83 232.52-18.95 231.74-18.93 230.97-18.9 229.82-18.95L229.82-18.95Q229.72-15.15 229.72-12.5ZM238.57-12.7L238.57-12.7 238.62-11.45Q238.62-11.15 239.02-11.15L239.02-11.15Q240.62-11.3 241.82-11.98 243.02-12.65 243.62-13.5L243.62-13.5Q244.82-15.35 244.92-16.7L244.92-16.7 244.97-17.3Q244.97-20 242.82-20L242.82-20Q241.22-20 240.22-18.6L240.22-18.6Q238.57-16.4 238.57-12.7ZM249.47-6.05L249.47-6.05Q249.47-4.15 248.69-2.73 247.92-1.3 246.94-0.63 245.97 0.05 244.67 0.45L244.67 0.45Q243.02 0.95 241.52 0.95L241.52 0.95Q237.32 0.95 235.32-2.2 233.32-5.35 233.32-10.23 233.32-15.1 235.79-18.9 238.27-22.7 243.22-22.7L243.22-22.7Q247.72-22.7 249.32-19.55L249.32-19.55Q249.97-18.35 249.97-17.28 249.97-16.2 249.87-15.58 249.77-14.95 249.17-13.7 248.57-12.45 247.57-11.45 246.57-10.45 244.42-9.55 242.27-8.65 239.37-8.35L239.37-8.35Q238.97-8.35 238.97-8L238.97-8Q238.97-7.55 239.29-6.68 239.62-5.8 240.02-5.2L240.02-5.2Q241.12-3.8 243.27-3.8L243.27-3.8Q245.42-3.8 246.92-5.2L246.92-5.2Q247.72-5.95 248.22-7.05L248.22-7.05Q248.42-7.45 248.74-7.45 249.07-7.45 249.27-6.9 249.47-6.35 249.47-6.05ZM258.36 2.1L258.36 2.1Q257.81 3.15 256.36 3.15 254.91 3.15 254.91 2.55L254.91 2.55Q254.91 2.3 255.06 2.1L255.06 2.1 278.91-36.7Q279.31-37.45 280.86-37.45 282.41-37.45 282.41-37.05L282.41-37.05Q282.41-37 258.36 2.1ZM282.56-4.5L282.56-4.5Q282.21-4.1 281.86-4.1L281.86-4.1Q281.26-4.1 281.01-4.85 280.76-5.6 280.76-6.25L280.76-6.25Q280.76-7.5 281.71-8.2L281.71-8.2Q284.11-10.1 290.86-14.2L290.86-14.2 293.26-15.65Q293.61-15.85 293.61-16.1L293.61-16.1Q293.61-16.55 293.16-16.8L293.16-16.8Q289.86-19.5 283.51-23.5L283.51-23.5 281.36-24.8Q280.41-25.55 280.41-26.93 280.41-28.3 281.11-28.3L281.11-28.3 281.76-28.05Q288.21-24.2 295.21-18.9L295.21-18.9 297.51-17.15Q298.46-16.5 298.46-15.7 298.46-14.9 297.66-14.25L297.66-14.25Q283.46-5.5 282.56-4.5Z" opacity="1" transform="matrix(1,0,0,1,0,0)" fill="white" class="slogan-text-1" id="SvgjsPath1588"></path></svg></g></svg></g></svg></g></svg></g><g transform="matrix(1,0,0,1,49.08894759349192,0)"><svg viewBox="0 0 297.34210481301614 157.2335025919305" height="157.2335025919305" width="297.34210481301614"><g><svg xmlns="http://www.w3.org/2000/svg" xmlns:xlink="http://www.w3.org/1999/xlink" version="1.1" x="0" y="0" viewBox="5.151 26.284 89.69800000000001 47.431999999999995" enable-background="new 0 0 100 100" xml:space="preserve" height="157.2335025919305" width="297.34210481301614" class="icon-icon-0" data-fill-palette-color="accent" id="SvgjsSvg1587"><g fill="black"><path d="M49.996 32.902L53.287 39.571 53.928 40.87 55.365 41.079 62.722 42.148 57.397 47.338 56.36 48.35 56.605 49.779 57.861 57.107 51.279 53.647 49.997 52.972 48.714 53.647 42.133 57.107 43.39 49.779 43.634 48.35 42.597 47.338 37.272 42.148 44.631 41.079 46.065 40.87 46.707 39.571zM49.996 26.673L44.232 38.351 31.345 40.224 40.67 49.314 38.47 62.149 49.996 56.088 61.523 62.149 59.321 49.313 68.646 40.223 55.76 38.351z" fill="black"></path><polygon points="59.149,63.116 59.149,63.116 59.149,63.116  " fill="black"></polygon><polygon points="72.194,39.427 59.32,37.556 60.383,34.378 94.849,34.531 92.68,39 74.199,37.886 91.276,41.891 89.813,44.907    72.803,40.654 88.516,47.579 87.209,50.268 71.976,43.104 85.949,52.863 84.725,55.384 71.65,46.027 83.464,57.981 82.417,60.138    70.898,50.353 81.191,62.661 80.971,63.116 61.107,50.302 61.097,50.243  " fill="black"></polygon><polygon points="5.151,34.531 39.618,34.378 40.68,37.556 27.806,39.427 38.902,50.243 38.894,50.302 19.029,63.116 18.809,62.661    29.103,50.353 17.584,60.138 16.536,57.981 28.35,46.027 15.275,55.384 14.052,52.863 28.024,43.104 12.791,50.268 11.486,47.579    27.197,40.654 10.188,44.907 8.724,41.891 25.801,37.886 7.32,39  " fill="black"></polygon><polygon points="56.854,61.902 65.458,73.716 59.541,73.716 54.871,63.415 57.984,73.716 55.474,73.716 52.495,62.15    53.596,73.716 51.333,73.716 50.063,60.343 48.543,73.716 46.28,73.716 47.716,62.15 44.402,73.716 41.892,73.716 45.494,63.415    40.336,73.716 35.43,73.716 43.977,61.894 50.05,58.325  " fill="black"></polygon><polygon points="63.107,61.963 65.38,64.333 69.125,63.116 70.986,66.148 69.103,64.633 66.184,66.148 62.158,66.148    59.754,63.546 63.054,64.615  " fill="black"></polygon><polygon points="36.793,61.963 34.521,64.333 30.775,63.116 28.914,66.148 30.798,64.633 33.716,66.148 37.742,66.148    40.146,63.546 36.847,64.615  " fill="black"></polygon><polygon points="43.229,29.73 40.067,29.579 38.845,30.5 39.652,28.436 42.764,26.965 45.479,26.284 48.42,26.514 45.025,33.31     " fill="black"></polygon></g></svg></g></svg></g><g></g></svg></g><defs><mask></mask></defs></svg><rect width="395.52" height="279.18456231798336" fill="black" stroke="none" visibility="hidden"></rect></g></mask><linearGradient x1="0.054" x2="0.941" y1="0.5" y2="0.5" id="38648eb5-2007-498f-8699-cf06492db5f9"><stop stop-color="#9c7945" offset="0"></stop><stop stop-color="#faf3aa" offset="0.498"></stop><stop stop-color="#9c7945" offset="1"></stop></linearGradient><rect width="395.5203636406451" height="279.18456231798336" fill="url(#38648eb5-2007-498f-8699-cf06492db5f9)" mask="url(#d89e45fe-8825-4fca-8845-6ae62a5ae98a)" data-fill-palette-color="secondary"></rect></svg><rect width="395.52" height="279.18456231798336" fill="none" stroke="none" visibility="hidden"></rect></g></svg></g></svg>