<svg xmlns="http://www.w3.org/2000/svg" version="1.1" xmlns:xlink="http://www.w3.org/1999/xlink" xmlns:svgjs="http://svgjs.dev/svgjs" width="2000" height="1999" viewBox="0 0 2000 1999"><g transform="matrix(1,0,0,1,-0.431486880466764,-0.4312711370263287)"><svg viewBox="0 0 343 343" data-background-color="#ffffff" preserveAspectRatio="xMidYMid meet" height="1999" width="2000" xmlns="http://www.w3.org/2000/svg" xmlns:xlink="http://www.w3.org/1999/xlink"><g id="tight-bounds" transform="matrix(1,0,0,1,0.0740000000000407,0.07400000000001228)"><svg viewBox="0 0 342.85155851775386 342.85155851775386" height="342.85155851775386" width="342.85155851775386"><g><svg></svg></g><g><svg viewBox="0 0 342.85155851775386 342.85155851775386" height="342.85155851775386" width="342.85155851775386"><g><path d="M0 171.426c0-94.676 76.75-171.426 171.426-171.426 94.676 0 171.426 76.75 171.426 171.426 0 94.676-76.75 171.426-171.426 171.426-94.676 0-171.426-76.75-171.426-171.426zM171.426 340.124c93.169 0 168.698-75.529 168.698-168.698 0-93.169-75.529-168.698-168.698-168.698-93.169 0-168.698 75.529-168.698 168.698 0 93.169 75.529 168.698 168.698 168.698z" data-fill-palette-color="tertiary" fill="#ffffff" stroke="transparent"></path><ellipse rx="164.56874808852186" ry="164.56874808852186" cx="171.42577925887693" cy="171.42577925887693" fill="#ffffff" stroke="transparent" stroke-width="0" fill-opacity="1" data-fill-palette-color="tertiary"></ellipse></g><g transform="matrix(1,0,0,1,64.84655864529837,86.0708504549983)"><svg viewBox="0 0 213.1584412271571 170.70985760775727" height="170.70985760775727" width="213.1584412271571"><g><svg viewBox="0 0 213.1584412271571 170.70985760775727" height="170.70985760775727" width="213.1584412271571"><g transform="matrix(1,0,0,1,0,113.35514555975766)"><svg viewBox="0 0 213.1584412271571 57.3547120479996" height="57.3547120479996" width="213.1584412271571"><g id="textblocktransform"><svg viewBox="0 0 213.1584412271571 57.3547120479996" height="57.3547120479996" width="213.1584412271571" id="textblock"><g><svg viewBox="0 0 213.1584412271571 30.249163033549078" height="30.249163033549078" width="213.1584412271571"><g transform="matrix(1,0,0,1,0,0)"><svg width="213.1584412271571" viewBox="1.45 -36.5 308.26553179190756 43.75" height="30.249163033549078" data-palette-color="#ffffff"><g transform="matrix(1,0,0,1,0,0)"><g><svg width="11.663687861271676" viewBox="3.16 -36.36 54.97 36.86" height="7.821000000000001" data-palette-color="#ffffff" id="scriptelement" x="298.05184393063587" y="-36.5"><path d="M10.85 0L3.16 0 3.16-36.36 17.51-36.36Q21.63-36.36 24.55-34.9 27.47-33.43 29-30.76 30.54-28.09 30.54-24.49L30.54-24.49Q30.54-20.86 28.98-18.26 27.41-15.66 24.46-14.28 21.5-12.89 17.31-12.89L17.31-12.89 7.71-12.89 7.71-19.07 16.07-19.07Q18.27-19.07 19.73-19.67 21.18-20.28 21.9-21.48 22.62-22.69 22.62-24.49L22.62-24.49Q22.62-26.3 21.9-27.54 21.18-28.78 19.72-29.43 18.25-30.08 16.03-30.08L16.03-30.08 10.85-30.08 10.85 0ZM14.51-16.55L22.8-16.55 31.84 0 23.35 0 14.51-16.55ZM50.53-11.01L50.53-36.36 58.13-36.36 58.13-11.01Q58.13-7.49 56.56-4.9 54.99-2.31 52.2-0.91 49.41 0.5 45.72 0.5L45.72 0.5Q42.43 0.5 39.76-0.67 37.09-1.83 35.53-4.22 33.96-6.61 33.98-10.23L33.98-10.23 41.63-10.23Q41.67-8.79 42.23-7.77 42.79-6.75 43.77-6.21 44.76-5.66 46.11-5.66L46.11-5.66Q47.53-5.66 48.51-6.28 49.5-6.89 50.02-8.08 50.53-9.27 50.53-11.01L50.53-11.01Z" opacity="1" transform="matrix(1,0,0,1,0,0)" fill="#000000" class="undefined-123" data-fill-palette-color="quaternary" id="tk-123"></path></svg></g></g><path d="M18.95-19.1L18.2-18.95Q17.65-18.8 17.65-18.63 17.65-18.45 18.85-18 20.05-17.55 21.13-16.6 22.2-15.65 22.65-14.3L22.65-14.3Q23.35-12.25 23.35-9.9 23.35-7.55 23.7-6.03 24.05-4.5 24.55-3.7L24.55-3.7Q25.55-2 26.4-1.6L26.4-1.6 26.75-1.4Q27.05-1.2 27.05-0.9L27.05-0.9Q27.05-0.15 24.6 0.43 22.15 1 20.8 1L20.8 1Q18.15 1 17.43-1.13 16.7-3.25 16.7-8.4L16.7-8.4 16.7-11.15Q16.7-15.5 14.1-16.7L14.1-16.7Q13.1-17.15 11.7-17.15L11.7-17.15 11.65-17.15Q11.2-17.15 11.2-18.03 11.2-18.9 11.73-19.8 12.25-20.7 12.65-20.7L12.65-20.7Q14.3-20.7 15.5-21.33 16.7-21.95 17.25-22.85L17.25-22.85Q18.4-24.75 18.5-26.1L18.5-26.1 18.5-26.75Q18.5-28.6 17.9-29.88 17.3-31.15 16.4-31.65L16.4-31.65Q14.9-32.45 13.35-32.45 11.8-32.45 10.8-32.2L10.8-32.2Q9.4-31.8 9.4-31.35L9.4-31.35Q8.95-24.8 8.95-18.73 8.95-12.65 9.13-9.43 9.3-6.2 9.47-4.23 9.65-2.25 9.65-1.9L9.65-1.9Q9.65-1.25 9.3-1L9.3-1Q7.25 0.9 2.85 0.9L2.85 0.9Q2.1 0.9 2.1 0.4L2.1 0.4Q2.1 0.25 2.25-0.3L2.25-0.3Q2.75-1.45 2.98-7.6 3.2-13.75 3.2-18.82 3.2-23.9 3-27.05L3-27.05Q2.7-31.8 2-32.75L2-32.75Q1.45-33.45 1.45-33.73 1.45-34 2-34.3L2-34.3Q5.2-35.8 13.6-35.8L13.6-35.8Q20.35-35.8 23.7-32L23.7-32Q25.5-29.9 25.5-26.75L25.5-26.75Q25.5-24.85 24.75-23.35 24-21.85 22.9-21.05L22.9-21.05Q20.8-19.45 18.95-19.1L18.95-19.1ZM28.95-8.7L28.95-8.7 29.3-22.75Q29.3-26 29.15-28.1L29.15-28.1Q28.9-31.85 28.3-32.8L28.3-32.8 28.1-33.1Q27.85-33.3 27.85-33.6L27.85-33.6Q27.85-34.55 30.35-35.13 32.85-35.7 34.55-35.7 36.25-35.7 36.25-34.75L36.25-34.75 36.2-34.2Q35.5-29.25 35.35-22.48 35.2-15.7 35.2-13.6 35.2-11.5 35.35-10.1 35.5-8.7 35.52-8.47 35.55-8.25 35.77-7.63 36-7 36.35-6.5L36.35-6.5Q37.25-5.3 38.9-5.3 40.55-5.3 41.67-6.05 42.8-6.8 43.35-7.9L43.35-7.9Q44.5-10.25 44.75-11.95L44.75-11.95 44.85-12.7Q45.1-16.25 45.1-21.1 45.1-25.95 45.05-27.45 45-28.95 44.9-29.93 44.8-30.9 44.72-31.65 44.65-32.4 44.6-32.83 44.55-33.25 44.55-33.3L44.55-33.3Q44.55-33.85 45.1-34.2L45.1-34.2Q45.95-34.85 47.72-35.3 49.5-35.75 50.9-35.75 52.3-35.75 52.3-35.1L52.3-35.1Q52.3-35 52.05-33.45L52.05-33.45Q50.95-26.65 50.95-14.55L50.95-14.55Q50.95-5.6 52.15-1.8L52.15-1.8Q52.35-1.2 52.35-0.98 52.35-0.75 51.95-0.4L51.95-0.4Q50.45 0.75 47.97 0.75 45.5 0.75 45.3-0.5L45.3-0.5Q45.05-1.15 45-3.1L45-3.1 44.95-3.7Q44.95-4.15 44.75-4.15L44.75-4.15 44.2-3.8Q43.25-2.2 42-1.13 40.75-0.05 39.6 0.35L39.6 0.35Q37.95 0.95 36.37 0.95 34.8 0.95 33.22 0.13 31.65-0.7 30.87-1.8 30.1-2.9 29.6-4.4L29.6-4.4Q28.95-6.55 28.95-8.7ZM66.55-20.95L66.55-20.95Q66.75-20.95 67.3-20.55 67.85-20.15 68.45-20.15L68.45-20.15 68.5-20.15Q70.2-20.15 71.2-21.5 72.2-22.85 72.3-24.2L72.3-24.2 72.45-25.55Q72.45-27.45 71.87-28.83 71.3-30.2 70.55-30.88 69.8-31.55 68.8-31.9L68.8-31.9Q67.55-32.4 66.17-32.4 64.8-32.4 63.95-32.13 63.1-31.85 63-31.6L63-31.6 62.95-31.3Q62.5-24.55 62.5-19.23 62.5-13.9 62.67-10.05 62.85-6.2 63.02-4.13 63.2-2.05 63.2-1.85L63.2-1.85Q63.2-0.6 61 0.15 58.8 0.9 56.65 0.9L56.65 0.9Q55.65 0.9 55.65 0.4L55.65 0.4Q55.65 0.25 55.8-0.3L55.8-0.3Q56.75-2.5 56.75-20.75L56.75-20.75Q56.75-31.5 55.3-33.05L55.3-33.05Q55-33.35 55-33.68 55-34 55.72-34.4 56.45-34.8 59.8-35.33 63.15-35.85 66.9-35.85L66.9-35.85Q72.8-35.85 75.77-32.65 78.75-29.45 78.75-25.03 78.75-20.6 76.32-17.35 73.9-14.1 70-14.1L70-14.1Q68.75-14.1 67.5-14.55L67.5-14.55Q65-15.45 65-18.3L65-18.3Q65-18.9 65.4-19.93 65.8-20.95 66.55-20.95ZM92.94-28.65L92.94-28.65Q88.99-23.7 87.24-18.75L87.24-18.75 87.29-18.75Q94.24-18.75 95.27-18.73 96.29-18.7 96.39-18.8 96.49-18.9 96.54-19.05L96.54-19.05Q95.69-25.2 95.19-27.43 94.69-29.65 94.19-29.65 93.69-29.65 92.94-28.65ZM88.49-5.1L88.49-5.1 89.59-5.3Q90.09-5.3 90.09-4.75L90.09-4.75Q90.09-3 89.39-1.8 88.69-0.6 87.64-0.1L87.64-0.1Q85.94 0.75 84.74 0.75L84.74 0.75Q82.44 0.75 81.29-0.98 80.14-2.7 80.14-6.18 80.14-9.65 82.04-15.2L82.04-15.2 79.14-15.2Q78.59-15.2 78.59-15.75 78.59-16.3 79.44-17.53 80.29-18.75 81.24-18.75L81.24-18.75 83.49-18.75Q87.04-26.65 91.84-32.4L91.84-32.4Q93.09-33.9 94.92-35.2 96.74-36.5 97.74-36.5 98.74-36.5 99.24-35.6L99.24-35.6Q100.54-33.5 102.29-20.25L102.29-20.25Q102.89-14.55 104.37-8.47 105.84-2.4 107.09-1.4L107.09-1.4Q107.39-1.2 107.39-0.9L107.39-0.9Q107.39-0.15 105.27 0.5 103.14 1.15 102.02 1.15 100.89 1.15 100.29 0.88 99.69 0.6 99.54 0.3L99.54 0.3Q98.64-1.65 97.74-9L97.74-9 97.44-11.35Q97.24-13.7 97.04-14.9L97.04-14.9 96.69-15.15 86.24-15.2Q85.64-12.65 85.64-10.75 85.64-8.85 85.77-7.98 85.89-7.1 86.59-6.1 87.29-5.1 88.49-5.1ZM122.39-30.6Q123.69-32.25 125.02-33.68 126.34-35.1 127.19-35.45 128.04-35.8 130.64-35.8 133.24-35.8 133.24-35.15L133.24-35.15Q133.24-34.9 132.69-34.6 132.14-34.3 131.19-33.65 130.24-33 127.22-30.1 124.19-27.2 121.14-23.3L121.14-23.3Q121.04-23.2 121.04-23.03 121.04-22.85 121.32-22.8 121.59-22.75 122.09-22.65 122.59-22.55 123.92-21.88 125.24-21.2 126.29-20.18 127.34-19.15 128.32-17.03 129.29-14.9 129.44-13.03 129.59-11.15 129.74-9.65 129.89-8.15 130.52-5.35 131.14-2.55 131.99-2L131.99-2Q132.24-1.8 132.24-1.5L132.24-1.5Q132.24-0.7 130.04-0.03 127.84 0.65 126.12 0.65 124.39 0.65 124.14-0.75L124.14-0.75Q123.89-2.25 123.79-7.9L123.79-7.9 123.79-9.9Q123.79-15.15 122.29-17.5L122.29-17.5Q120.99-19.55 119.94-19.8L119.94-19.8Q119.14-20.05 119.09-20.05L119.09-20.05 118.54-19.8Q117.34-18.4 116.64-17.1 115.94-15.8 115.89-15.2L115.89-15.2 115.79-14.55Q115.79-7.5 116.39-2.5L116.39-2.5Q116.49-1.9 116.49-1.8L116.49-1.8Q116.49-0.7 114.17 0.1 111.84 0.9 110.37 0.9 108.89 0.9 108.89 0.45L108.89 0.45Q108.89 0.15 109.04-0.3L109.04-0.3Q109.54-1.4 109.77-7.58 109.99-13.75 109.99-18.82 109.99-23.9 109.79-27.05L109.79-27.05Q109.49-31.8 108.79-32.75L108.79-32.75Q108.24-33.45 108.24-33.65L108.24-33.65Q108.24-34.35 110.82-35 113.39-35.65 114.97-35.65 116.54-35.65 116.54-34.95L116.54-34.95 116.49-34.3Q115.84-28.9 115.84-22.75L115.84-22.75Q115.84-22.25 116.07-22.25 116.29-22.25 116.59-22.7 116.89-23.15 117.47-23.95 118.04-24.75 119.57-26.85 121.09-28.95 122.39-30.6ZM144.59-9.25L144.59-9.25 144.69-19.35Q144.69-31.2 143.54-32.75L143.54-32.75Q142.99-33.45 142.99-33.73 142.99-34 143.66-34.38 144.34-34.75 146.29-35.2 148.24-35.65 149.74-35.65 151.24-35.65 151.24-34.95L151.24-34.95 151.14-34.3Q150.54-28.9 150.54-23.75 150.54-18.6 150.84-12.25 151.14-5.9 151.14-2.9L151.14-2.9Q151.14 1.15 148.01 4.08 144.89 7 140.59 7.25L140.59 7.25Q139.74 7.15 139.74 6.65L139.74 6.65Q139.74 6.3 139.96 6.1 140.19 5.9 140.49 5.6 140.79 5.3 141.59 4.05 142.39 2.8 142.99 1.23 143.59-0.35 144.09-3.15 144.59-5.95 144.59-9.25ZM167.68-28.65L167.68-28.65Q163.73-23.7 161.98-18.75L161.98-18.75 162.03-18.75Q168.98-18.75 170.01-18.73 171.03-18.7 171.13-18.8 171.23-18.9 171.28-19.05L171.28-19.05Q170.43-25.2 169.93-27.43 169.43-29.65 168.93-29.65 168.43-29.65 167.68-28.65ZM163.23-5.1L163.23-5.1 164.33-5.3Q164.83-5.3 164.83-4.75L164.83-4.75Q164.83-3 164.13-1.8 163.43-0.6 162.38-0.1L162.38-0.1Q160.68 0.75 159.48 0.75L159.48 0.75Q157.18 0.75 156.03-0.98 154.88-2.7 154.88-6.18 154.88-9.65 156.78-15.2L156.78-15.2 153.88-15.2Q153.33-15.2 153.33-15.75 153.33-16.3 154.18-17.53 155.03-18.75 155.98-18.75L155.98-18.75 158.23-18.75Q161.78-26.65 166.58-32.4L166.58-32.4Q167.83-33.9 169.66-35.2 171.48-36.5 172.48-36.5 173.48-36.5 173.98-35.6L173.98-35.6Q175.28-33.5 177.03-20.25L177.03-20.25Q177.63-14.55 179.11-8.47 180.58-2.4 181.83-1.4L181.83-1.4Q182.13-1.2 182.13-0.9L182.13-0.9Q182.13-0.15 180.01 0.5 177.88 1.15 176.76 1.15 175.63 1.15 175.03 0.88 174.43 0.6 174.28 0.3L174.28 0.3Q173.38-1.65 172.48-9L172.48-9 172.18-11.35Q171.98-13.7 171.78-14.9L171.78-14.9 171.43-15.15 160.98-15.2Q160.38-12.65 160.38-10.75 160.38-8.85 160.51-7.98 160.63-7.1 161.33-6.1 162.03-5.1 163.23-5.1ZM199.33-32.5L199.33-32.5 199.13-34.35Q199.13-35.25 201.43-35.63 203.73-36 205.93-36 208.13-36 208.13-35.25L208.13-35.25Q208.13-34.9 207.63-34.4L207.63-34.4Q205.68-32.35 202.91-27.7 200.13-23.05 198.33-19.4L198.33-19.4 196.53-15.8Q195.63-13.9 195.63-11.63 195.63-9.35 195.78-7.13 195.93-4.9 196.08-3.35 196.23-1.8 196.23-1.55L196.23-1.55Q196.23-0.3 193.93 0.48 191.63 1.25 190.16 1.25 188.68 1.25 188.68 0.7L188.68 0.7 188.83 0.05Q189.68-4.5 189.68-10.75L189.68-10.75Q189.68-12.3 189.18-14.6L189.18-14.6 189.03-15.25Q185.83-23.9 183.03-28L183.03-28Q180.63-31.65 179.53-32.3L179.53-32.3 179.08-32.6Q178.58-32.9 178.58-33.3L178.58-33.3Q178.58-34.15 181.18-35.05 183.78-35.95 185.11-35.95 186.43-35.95 186.88-35.15L186.88-35.15Q191.38-25.75 193.88-19.95L193.88-19.95Q194.03-19.65 194.31-19.65 194.58-19.65 194.96-20.25 195.33-20.85 196.08-22.15 196.83-23.45 198.08-26.78 199.33-30.1 199.33-32.5ZM216.88-28.65L216.88-28.65Q212.93-23.7 211.18-18.75L211.18-18.75 211.23-18.75Q218.18-18.75 219.2-18.73 220.23-18.7 220.33-18.8 220.43-18.9 220.48-19.05L220.48-19.05Q219.63-25.2 219.13-27.43 218.63-29.65 218.13-29.65 217.63-29.65 216.88-28.65ZM212.43-5.1L212.43-5.1 213.53-5.3Q214.03-5.3 214.03-4.75L214.03-4.75Q214.03-3 213.33-1.8 212.63-0.6 211.58-0.1L211.58-0.1Q209.88 0.75 208.68 0.75L208.68 0.75Q206.38 0.75 205.23-0.98 204.08-2.7 204.08-6.18 204.08-9.65 205.98-15.2L205.98-15.2 203.08-15.2Q202.53-15.2 202.53-15.75 202.53-16.3 203.38-17.53 204.23-18.75 205.18-18.75L205.18-18.75 207.43-18.75Q210.98-26.65 215.78-32.4L215.78-32.4Q217.03-33.9 218.85-35.2 220.68-36.5 221.68-36.5 222.68-36.5 223.18-35.6L223.18-35.6Q224.48-33.5 226.23-20.25L226.23-20.25Q226.83-14.55 228.3-8.47 229.78-2.4 231.03-1.4L231.03-1.4Q231.33-1.2 231.33-0.9L231.33-0.9Q231.33-0.15 229.2 0.5 227.08 1.15 225.95 1.15 224.83 1.15 224.23 0.88 223.63 0.6 223.48 0.3L223.48 0.3Q222.58-1.65 221.68-9L221.68-9 221.38-11.35Q221.18-13.7 220.98-14.9L220.98-14.9 220.63-15.15 210.18-15.2Q209.58-12.65 209.58-10.75 209.58-8.85 209.7-7.98 209.83-7.1 210.53-6.1 211.23-5.1 212.43-5.1ZM251.48-15.65L251.48-15.65 251.43-21.6Q251.43-30.45 250.83-33.35L250.83-33.35Q250.73-33.7 250.73-33.9L250.73-33.9Q250.73-34.75 252.43-35.35 254.13-35.95 255.13-35.95 256.13-35.95 256.13-35.35L256.13-35.35Q256.13-35.3 256.03-34.8L256.03-34.8Q254.88-28.65 254.88-15.25L254.88-15.25Q254.88-6.1 255.93-2.1L255.93-2.1Q256.13-1.45 256.13-1.4L256.13-1.4Q256.13-0.35 253.83 0.33 251.53 1 250.58 1L250.58 1Q249.08 1 248.53 0.3L248.53 0.3Q247.43-1.1 244.95-7.58 242.48-14.05 240.63-19.65L240.63-19.65 238.73-25.25Q238.63-25.5 238.48-25.5L238.48-25.5Q238.28-25.5 238.03-25.15L238.03-25.15Q237.78-20.5 237.78-15.85 237.78-11.2 237.85-8.7 237.93-6.2 238.03-4.9 238.13-3.6 238.23-2.83 238.33-2.05 238.4-1.7 238.48-1.35 238.48-1.2L238.48-1.2Q238.48-0.25 236.83 0.28 235.18 0.8 233.85 0.8 232.53 0.8 232.53 0.2L232.53 0.2Q232.53-0.1 232.68-0.55 232.83-1 233.03-1.7L233.03-1.7Q233.53-3.45 233.73-8.08 233.93-12.7 233.93-18.63 233.93-24.55 233.78-27.25L233.78-27.25Q233.53-31.65 232.88-33.15L232.88-33.15Q232.73-33.3 232.73-33.55L232.73-33.55Q232.73-34.35 235.38-35.1 238.03-35.85 239.5-35.85 240.98-35.85 241.23-35.8L241.23-35.8Q241.93-35.85 242.08-35L242.08-35Q243.53-29.75 246.15-22.65 248.78-15.55 250.83-11.8L250.83-11.8Q251.08-11.55 251.23-11.55L251.23-11.55Q251.48-11.55 251.48-15.65ZM275.47-22.5L275.47-22.5 275.52-16.25 275.32-7.6Q275.37-7.4 275.47-7.4 275.57-7.4 275.62-7.5L275.62-7.5Q276.62-8.9 278.1-8.9 279.57-8.9 279.57-8.3L279.57-8.3Q279.57-6.4 280.3-5.38 281.02-4.35 282.35-4.35 283.67-4.35 284.9-6.15 286.12-7.95 286.12-10.95L286.12-10.95Q286.12-11.95 285.72-13.35L285.72-13.35Q284.92-16.15 282.72-17.1L282.72-17.1Q281.12-17.75 277.52-17.75L277.52-17.75Q277.12-17.75 277.12-18.3L277.12-18.3Q277.12-21.1 278.12-21.2L278.12-21.2Q279.47-21.2 280.97-21.9L280.97-21.9Q283.97-23.3 283.97-27.65L283.97-27.65Q283.97-32.35 278.57-32.35L278.57-32.35 277.02-32.25Q276.12-32.05 276.02-31.5L276.02-31.5 276.02-31.35Q275.47-29.35 275.47-22.5ZM268.12 0.7L268.12 0.7 268.22 0.15Q268.72-0.75 269.07-7.18 269.42-13.6 269.42-19.18 269.42-24.75 269.2-28.13 268.97-31.5 267.97-33L267.97-33Q267.77-33.25 267.77-33.6 267.77-33.95 268.37-34.2L268.37-34.2Q272.47-35.8 279.52-35.8L279.52-35.8Q281.27-35.8 283.32-35.33 285.37-34.85 286.7-34.15 288.02-33.45 289.1-32 290.17-30.55 290.32-28.55L290.32-28.55Q290.32-21.3 284.32-20.2L284.32-20.2Q284.02-20.1 284.02-19.98 284.02-19.85 284.27-19.7L284.27-19.7Q287.37-19.2 289.47-17.2L289.47-17.2Q290.52-16.25 291.37-14.25 292.22-12.25 292.22-9.65L292.22-9.65Q292.22-6.3 290.27-3.3L290.27-3.3Q288.67-0.85 285.62 0.2L285.62 0.2Q283.92 0.8 281.82 0.8L281.82 0.8Q276.57 0.8 275.17-2.55L275.17-2.55Q275.12-2.7 275.02-2.7L275.02-2.7 274.82-2.5Q273.77 1 268.82 1.15L268.82 1.15Q268.12 1.15 268.12 0.7Z" opacity="1" transform="matrix(1,0,0,1,0,0)" fill="#000000" class="wordmark-text-0" data-fill-palette-color="quaternary" id="text-0"></path></svg></g></svg></g><g transform="matrix(1,0,0,1,31.73723801182699,37.39026444585721)"><svg viewBox="0 0 125.49081349918079 19.964447602142393" height="19.964447602142393" width="125.49081349918079"><g transform="matrix(1,0,0,1,0,0)"><svg width="125.49081349918079" viewBox="1.5 -37.45 296.96 47.25" height="19.964447602142393" data-palette-color="#ffffff"><path d="M18.1-4.2L18.1-4.2Q17.75-4.2 17.4-4.6L17.4-4.6Q16.7-5.4 5.9-12.1L5.9-12.1 2.3-14.35Q1.5-15 1.5-15.55L1.5-15.55Q1.5-16.5 2.45-17.25L2.45-17.25Q10.7-23.6 18.2-28.15L18.2-28.15Q18.55-28.4 18.85-28.4L18.85-28.4Q19.55-28.4 19.55-27.03 19.55-25.65 18.6-24.9L18.6-24.9Q10.5-19.95 6.8-16.9L6.8-16.9Q6.35-16.6 6.35-16.28 6.35-15.95 6.7-15.75L6.7-15.75Q16.05-10.15 18.4-8.2L18.4-8.2Q19.2-7.75 19.2-6.7L19.2-6.7Q19.2-4.2 18.1-4.2ZM53.14-11.45L53.14-11.45Q54.09-11.45 54.09-9.05 54.09-6.65 53.2-4.75 52.3-2.85 51.02-1.8 49.75-0.75 48.14-0.1L48.14-0.1Q42.8 2.25 38.14-0.2L38.14-0.2Q35.8-1.45 34.55-3.18 33.3-4.9 32.55-7.3L32.55-7.3Q31.39-10.9 31.39-14.85 31.39-18.8 32.14-22.25 32.89-25.7 34.45-28.83 35.99-31.95 38.84-33.85 41.7-35.75 45.45-35.75L45.45-35.75Q47.05-35.75 48.77-35.23 50.5-34.7 51.59-33.93 52.7-33.15 53.55-31.55 54.39-29.95 54.39-27.8L54.39-27.8Q54.39-25.5 53.3-23.65L53.3-23.65Q52.8-22.8 51.7-22.13 50.59-21.45 49.09-21.45L49.09-21.45Q46.8-21.45 45.84-23.5L45.84-23.5Q45.45-24.3 45.45-25.25 45.45-26.2 46.09-26.35L46.09-26.35Q46.8-26.55 47.39-27.45 47.99-28.35 47.99-29.55L47.99-29.55Q47.99-30.5 47.49-31.2L47.49-31.2Q46.55-32.45 44.74-32.45 42.95-32.45 41.47-30.8 39.99-29.15 39.24-26.65L39.24-26.65Q37.74-21.65 37.74-17.45L37.74-17.45Q37.74-13.25 38.89-10.7L38.89-10.7Q40.3-7.55 42.45-6.5L42.45-6.5Q43.8-5.85 45.55-5.85L45.55-5.85Q48.49-5.85 50.84-8.5L50.84-8.5Q51.84-9.55 52.5-11L52.5-11Q52.75-11.45 53.14-11.45ZM61.74-18.85L61.74-18.85Q60.44-18.8 59.87-18.78 59.29-18.75 59.29-19.05 59.29-19.35 59.59-19.65L59.59-19.65Q62.79-22.6 70.39-22.6L70.39-22.6Q72.99-22.6 74.49-22.15L74.49-22.15 74.99-22Q75.59-21.75 75.59-21.45L75.59-21.45Q75.59-21.2 75.24-21.05L75.24-21.05Q73.89-20.65 72.64-19.78 71.39-18.9 71.39-18.55L71.39-18.55 71.69-18.2Q73.29-17.3 74.17-15.35 75.04-13.4 75.14-11.9L75.14-11.9 75.24-10.35Q75.24-5.4 72.49-2.2 69.74 1 64.99 1L64.99 1Q62.59 1 60.84 0.15 59.09-0.7 58.27-1.78 57.44-2.85 56.94-4.2L56.94-4.2Q56.34-6.05 56.34-8.03 56.34-10 57.02-12 57.69-14 58.57-14.95 59.44-15.9 60.54-16.5L60.54-16.5Q61.94-17.25 62.79-17.25 63.64-17.25 63.64-16.9L63.64-16.9 63.34-16.4Q62.24-15.1 61.77-13 61.29-10.9 61.29-9.28 61.29-7.65 61.69-6.05 62.09-4.45 62.59-3.68 63.09-2.9 63.74-2.5L63.74-2.5Q64.69-1.9 65.74-1.9 66.79-1.9 67.79-2.73 68.79-3.55 69.24-4.9L69.24-4.9Q70.14-7.4 70.14-10.05L70.14-10.05Q70.14-14.25 68.02-16.55 65.89-18.85 61.74-18.85ZM87.84-22.45L87.84-22.45Q88.74-22.45 89.47-22.23 90.19-22 90.24-22L90.24-22 90.54-22.25 90.34-27.7Q90.24-29.1 89.74-30.1 89.24-31.1 88.84-31.4L88.84-31.4 88.39-31.65Q88.09-31.85 88.09-32.1L88.09-32.1Q88.09-32.85 90.42-33.85 92.74-34.85 94.04-34.85 95.34-34.85 95.44-34.3L95.44-34.3Q95.69-32.6 95.69-27.83 95.69-23.05 95.47-18.45 95.24-13.85 95.24-8.03 95.24-2.2 95.99-0.7L95.99-0.7Q96.19-0.35 96.19-0.05L96.19-0.05Q96.19 0.7 94.04 0.7L94.04 0.7Q89.94 0.7 89.94-1.25L89.94-1.25Q89.84-2.05 89.84-3.73 89.84-5.4 90.17-9.98 90.49-14.55 90.49-17.03 90.49-19.5 88.02-19.5 85.54-19.5 84.24-16.6 82.94-13.7 82.94-10.8L82.94-10.8Q82.94-4.65 86.04-4.65L86.04-4.65Q86.49-4.65 86.92-4.83 87.34-5 87.44-5L87.44-5Q87.84-5 88.06-4.5 88.29-4 88.29-3.5L88.29-3.5Q88.29-1.8 86.94-0.63 85.59 0.55 83.64 0.55L83.64 0.55Q80.64 0.55 79.12-2.08 77.59-4.7 77.59-8.6L77.59-8.6Q77.59-13.55 79.94-17.8L79.94-17.8Q81.14-19.9 83.19-21.18 85.24-22.45 87.84-22.45ZM103.19-12.7L103.19-12.7 103.24-11.45Q103.24-11.15 103.64-11.15L103.64-11.15Q105.24-11.3 106.44-11.98 107.64-12.65 108.24-13.5L108.24-13.5Q109.44-15.35 109.54-16.7L109.54-16.7 109.59-17.3Q109.59-20 107.44-20L107.44-20Q105.84-20 104.84-18.6L104.84-18.6Q103.19-16.4 103.19-12.7ZM114.09-6.05L114.09-6.05Q114.09-4.15 113.31-2.73 112.54-1.3 111.56-0.63 110.59 0.05 109.29 0.45L109.29 0.45Q107.64 0.95 106.14 0.95L106.14 0.95Q101.94 0.95 99.94-2.2 97.94-5.35 97.94-10.23 97.94-15.1 100.41-18.9 102.89-22.7 107.84-22.7L107.84-22.7Q112.34-22.7 113.94-19.55L113.94-19.55Q114.59-18.35 114.59-17.28 114.59-16.2 114.49-15.58 114.39-14.95 113.79-13.7 113.19-12.45 112.19-11.45 111.19-10.45 109.04-9.55 106.89-8.65 103.99-8.35L103.99-8.35Q103.59-8.35 103.59-8L103.59-8Q103.59-7.55 103.91-6.68 104.24-5.8 104.64-5.2L104.64-5.2Q105.74-3.8 107.89-3.8L107.89-3.8Q110.04-3.8 111.54-5.2L111.54-5.2Q112.34-5.95 112.84-7.05L112.84-7.05Q113.04-7.45 113.36-7.45 113.69-7.45 113.89-6.9 114.09-6.35 114.09-6.05ZM127.93-9L127.93-9 128.23-17.85 124.88-17.85Q124.48-17.85 124.48-18.15L124.48-18.15Q124.48-19.05 125.33-20.23 126.18-21.4 127.18-21.4L127.18-21.4 128.23-21.4Q128.13-25.3 128.03-27L128.03-27Q127.83-30.05 127.03-31.7L127.03-31.7 126.78-32.2Q126.58-32.45 126.58-32.8 126.58-33.15 127.13-33.4 127.68-33.65 128.76-34 129.83-34.35 133.33-34.93 136.83-35.5 140.96-35.5 145.08-35.5 145.46-34.9 145.83-34.3 145.83-33.02 145.83-31.75 145.48-31.75L145.48-31.75Q145.43-31.75 145.13-31.8L145.13-31.8Q144.33-32 142.68-32 141.03-32 139.13-31.7 137.23-31.4 136.23-31.1L136.23-31.1 135.28-30.75Q134.88-30.65 134.68-30.05L134.68-30.05Q134.28-27.1 134.28-21.4L134.28-21.4 142.38-21.4Q142.83-21.4 142.83-21.1L142.83-21.1Q142.83-20.2 142.03-19 141.23-17.8 140.23-17.8L140.23-17.8 134.28-17.85 134.63-2.85Q134.63-1.75 134.28-1.25L134.28-1.25Q133.33 0 131.06 0.63 128.78 1.25 127.28 1.25L127.28 1.25Q126.88 1.25 126.88 0.75L126.88 0.75Q126.88 0.5 126.93 0.35L126.93 0.35Q127.53-0.5 127.93-9ZM148.08-18.85L148.08-18.85Q146.78-18.8 146.21-18.78 145.63-18.75 145.63-19.05 145.63-19.35 145.93-19.65L145.93-19.65Q149.13-22.6 156.73-22.6L156.73-22.6Q159.33-22.6 160.83-22.15L160.83-22.15 161.33-22Q161.93-21.75 161.93-21.45L161.93-21.45Q161.93-21.2 161.58-21.05L161.58-21.05Q160.23-20.65 158.98-19.78 157.73-18.9 157.73-18.55L157.73-18.55 158.03-18.2Q159.63-17.3 160.5-15.35 161.38-13.4 161.48-11.9L161.48-11.9 161.58-10.35Q161.58-5.4 158.83-2.2 156.08 1 151.33 1L151.33 1Q148.93 1 147.18 0.15 145.43-0.7 144.61-1.78 143.78-2.85 143.28-4.2L143.28-4.2Q142.68-6.05 142.68-8.03 142.68-10 143.36-12 144.03-14 144.91-14.95 145.78-15.9 146.88-16.5L146.88-16.5Q148.28-17.25 149.13-17.25 149.98-17.25 149.98-16.9L149.98-16.9 149.68-16.4Q148.58-15.1 148.11-13 147.63-10.9 147.63-9.28 147.63-7.65 148.03-6.05 148.43-4.45 148.93-3.68 149.43-2.9 150.08-2.5L150.08-2.5Q151.03-1.9 152.08-1.9 153.13-1.9 154.13-2.73 155.13-3.55 155.58-4.9L155.58-4.9Q156.48-7.4 156.48-10.05L156.48-10.05Q156.48-14.25 154.36-16.55 152.23-18.85 148.08-18.85ZM179.18-17.2L178.93-13.4 179.13-11.65Q179.13-10.7 177.33-10.7L177.33-10.7Q173.68-10.7 173.68-13.45L173.68-13.45Q173.68-14.1 174.03-15.25 174.38-16.4 174.38-17.25 174.38-18.1 173.88-18.73 173.38-19.35 172.43-19.35 171.48-19.35 170.8-18.68 170.13-18 169.98-17.3L169.98-17.3 169.78-16.6Q169.48-15.05 169.48-11.43 169.48-7.8 169.58-5.73 169.68-3.65 169.78-2.88 169.88-2.1 169.88-1.95L169.88-1.95Q169.88-0.7 168.33 0.08 166.78 0.85 165.23 0.85 163.68 0.85 163.68 0.2L163.68 0.2 163.93-1.35Q164.63-5.7 164.63-12.7 164.63-19.7 164.13-22.2L164.13-22.2Q164.13-22.8 165.18-22.8L165.18-22.8Q167.88-22.8 168.78-20.95L168.78-20.95Q168.83-20.75 168.95-20.75 169.08-20.75 169.63-21.2L169.63-21.2Q171.28-22.55 173.53-22.55L173.53-22.55Q174.93-22.55 176.33-22L176.33-22Q179.18-20.85 179.18-17.2L179.18-17.2ZM204.32-0.05L204.32-0.05 201.47-0.1Q200.87-0.1 200.27-0.1L200.27-0.1 191.17 0.35Q190.42 0.35 190.42-0.15L190.42-0.15Q190.42-0.3 190.57-0.85L190.57-0.85Q191.07-2 191.3-8.15 191.52-14.3 191.52-19.38 191.52-24.45 191.32-27.6L191.32-27.6Q191.02-32.35 190.32-33.3L190.32-33.3Q189.77-34 189.77-34.2L189.77-34.2Q189.77-35 192.47-35.6 195.17-36.2 196.35-36.2 197.52-36.2 197.82-36.08 198.12-35.95 198.12-35.55 198.12-35.15 197.92-33L197.92-33Q197.42-26.65 197.42-18.23 197.42-9.8 197.82-4.75L197.82-4.75Q197.82-4.2 198.77-3.8 199.72-3.4 201.12-3.4L201.12-3.4Q206.02-3.4 206.02-10.95L206.02-10.95Q206.02-13.05 205.8-13.55 205.57-14.05 205.57-14.2L205.57-14.2Q205.57-14.7 206.27-14.7L206.27-14.7Q206.82-14.7 207.75-14.15 208.67-13.6 209.27-12.78 209.87-11.95 210.37-10.18 210.87-8.4 210.87-6L210.87-6Q210.87-0.05 209.42-0.05L209.42-0.05Q206.87-0.05 204.32-0.05ZM217.87-26.75L217.87-26.75 216.67-26.8Q215.32-26.8 214.92-26.15L214.92-26.15Q214.82-26 214.67-26L214.67-26Q214.02-26 214.02-28.23 214.02-30.45 214.7-31.05 215.37-31.65 217.05-31.65 218.72-31.65 219.32-31.08 219.92-30.5 219.92-29.15 219.92-27.8 219.47-27.28 219.02-26.75 217.87-26.75ZM213.87-1.5L213.87-1.5 214.42-13.15Q214.42-17.3 213.47-18.8L213.47-18.8Q213.17-19.3 212.77-19.55L212.77-19.55Q212.47-19.65 212.47-19.95L212.47-19.95Q212.47-20.85 215.02-21.7 217.57-22.55 218.75-22.55 219.92-22.55 219.97-21.95L219.97-21.95Q219.97-20.95 219.7-16.28 219.42-11.6 219.42-6.45 219.42-1.3 220.02-0.05L220.02-0.05Q220.17 0.2 220.17 0.45L220.17 0.45Q220.17 1.1 218.27 1.1 216.37 1.1 214.37 0.1L214.37 0.1Q213.87-0.15 213.87-1.5ZM229.72-12.5L229.72-12.5 229.97-2.5Q229.97 0.65 229.14 3.08 228.32 5.5 227.12 6.7L227.12 6.7Q224.67 9.25 222.82 9.6L222.82 9.6 221.97 9.8Q221.22 9.8 221.22 9.35L221.22 9.35 221.47 8.6Q225.12 3.55 225.12-16.2L225.12-16.2Q225.12-18 225.07-18.9L225.07-18.9Q224.02-18.9 222.97-18.75L222.97-18.75 222.92-18.75Q222.37-18.75 222.37-19.3L222.37-19.3 222.52-21.2Q222.57-21.65 223.22-21.65L223.22-21.65 225.02-21.65 225.02-25 225.12-29.75Q225.12-30.1 225.24-30.53 225.37-30.95 226.32-31.83 227.27-32.7 229.12-33.43 230.97-34.15 232.29-34.15 233.62-34.15 233.62-33.35L233.62-33.35Q233.62-33.05 233.17-32.85L233.17-32.85Q231.72-32.4 230.79-30.28 229.87-28.15 229.87-23.05L229.87-23.05 229.87-21.65Q232.42-21.75 233.22-21.9L233.22-21.9Q233.57-21.9 233.57-21.3 233.57-20.7 233.04-19.83 232.52-18.95 231.74-18.93 230.97-18.9 229.82-18.95L229.82-18.95Q229.72-15.15 229.72-12.5ZM238.57-12.7L238.57-12.7 238.62-11.45Q238.62-11.15 239.02-11.15L239.02-11.15Q240.62-11.3 241.82-11.98 243.02-12.65 243.62-13.5L243.62-13.5Q244.82-15.35 244.92-16.7L244.92-16.7 244.97-17.3Q244.97-20 242.82-20L242.82-20Q241.22-20 240.22-18.6L240.22-18.6Q238.57-16.4 238.57-12.7ZM249.47-6.05L249.47-6.05Q249.47-4.15 248.69-2.73 247.92-1.3 246.94-0.63 245.97 0.05 244.67 0.45L244.67 0.45Q243.02 0.95 241.52 0.95L241.52 0.95Q237.32 0.95 235.32-2.2 233.32-5.35 233.32-10.23 233.32-15.1 235.79-18.9 238.27-22.7 243.22-22.7L243.22-22.7Q247.72-22.7 249.32-19.55L249.32-19.55Q249.97-18.35 249.97-17.28 249.97-16.2 249.87-15.58 249.77-14.95 249.17-13.7 248.57-12.45 247.57-11.45 246.57-10.45 244.42-9.55 242.27-8.65 239.37-8.35L239.37-8.35Q238.97-8.35 238.97-8L238.97-8Q238.97-7.55 239.29-6.68 239.62-5.8 240.02-5.2L240.02-5.2Q241.12-3.8 243.27-3.8L243.27-3.8Q245.42-3.8 246.92-5.2L246.92-5.2Q247.72-5.95 248.22-7.05L248.22-7.05Q248.42-7.45 248.74-7.45 249.07-7.45 249.27-6.9 249.47-6.35 249.47-6.05ZM258.36 2.1L258.36 2.1Q257.81 3.15 256.36 3.15 254.91 3.15 254.91 2.55L254.91 2.55Q254.91 2.3 255.06 2.1L255.06 2.1 278.91-36.7Q279.31-37.45 280.86-37.45 282.41-37.45 282.41-37.05L282.41-37.05Q282.41-37 258.36 2.1ZM282.56-4.5L282.56-4.5Q282.21-4.1 281.86-4.1L281.86-4.1Q281.26-4.1 281.01-4.85 280.76-5.6 280.76-6.25L280.76-6.25Q280.76-7.5 281.71-8.2L281.71-8.2Q284.11-10.1 290.86-14.2L290.86-14.2 293.26-15.65Q293.61-15.85 293.61-16.1L293.61-16.1Q293.61-16.55 293.16-16.8L293.16-16.8Q289.86-19.5 283.51-23.5L283.51-23.5 281.36-24.8Q280.41-25.55 280.41-26.93 280.41-28.3 281.11-28.3L281.11-28.3 281.76-28.05Q288.21-24.2 295.21-18.9L295.21-18.9 297.51-17.15Q298.46-16.5 298.46-15.7 298.46-14.9 297.66-14.25L297.66-14.25Q283.46-5.5 282.56-4.5Z" opacity="1" transform="matrix(1,0,0,1,0,0)" fill="#000000" class="slogan-text-1" data-fill-palette-color="quaternary" id="text-1"></path></svg></g></svg></g></svg></g></svg></g><g transform="matrix(1,0,0,1,53.47219853985379,0)"><svg viewBox="0 0 106.21404414744953 106.21404414744953" height="106.21404414744953" width="106.21404414744953"><g><svg xmlns="http://www.w3.org/2000/svg" data-name="Layer 2" viewBox="7.25 7.25 85.5 85.5" x="0" y="0" height="106.21404414744953" width="106.21404414744953" class="icon-icon-0" data-fill-palette-color="quaternary" id="icon-0"><path d="M81.54 69.79L56.85 88.3A1 1 0 0 1 56.49 88.46H56.25A1 1 0 0 1 56.02 88.46 1 1 0 0 1 55.36 87.94L50 77.24 44.64 88A1 1 0 0 1 43.98 88.52 1 1 0 0 1 43.15 88.35L18.46 69.79C16.51 70.06 7.25 72.17 7.25 87.5V92.75H17.75V87.5A1 1 0 0 1 19.75 87.5V92.75H80.25V87.5A1 1 0 0 1 82.25 87.5V92.75H92.75V87.5C92.75 72.17 83.5 70.06 81.54 69.79" fill="#000000" data-fill-palette-color="quaternary"></path><polygon points="79.73 68.64 68.75 57.66 51.22 75.2 56.61 85.98 79.73 68.64" fill="#000000" data-fill-palette-color="quaternary"></polygon><polygon points="20.27 68.64 43.39 85.98 48.78 75.2 31.25 57.66 20.27 68.64" fill="#000000" data-fill-palette-color="quaternary"></polygon><path d="M83.22 31.58C83.22 30.92 81.08 28.93 71.53 27.4V30.53A1 1 0 0 1 70.82 31.53 72.3 72.3 0 0 1 29.19 31.53 1 1 0 0 1 28.47 30.53V27.4C18.92 28.93 16.78 30.92 16.78 31.58 16.78 33.58 28.19 37.25 50 37.25S83.22 33.56 83.22 31.58" fill="#000000" data-fill-palette-color="quaternary"></path><path d="M69.53 26.24V15.82C69.53 11.09 65.14 7.25 59.75 7.25H40.25C34.86 7.25 30.47 11.09 30.47 15.82V29.82A70.47 70.47 0 0 0 69.53 29.82Z" fill="#000000" data-fill-palette-color="quaternary"></path><path d="M52.16 49.55A7.69 7.69 0 1 0 52.16 47.55H47.93A7.69 7.69 0 1 0 47.93 49.55H52.17Z" fill="#000000" data-fill-palette-color="quaternary"></path></svg></g></svg></g><g></g></svg></g></svg></g></svg></g><defs></defs></svg><rect width="342.85155851775386" height="342.85155851775386" fill="none" stroke="none" visibility="hidden"></rect></g></svg></g></svg>